<?xml version="1.0" encoding="UTF-8"?>
<svg xmlns="http://www.w3.org/2000/svg" xmlns:xlink="http://www.w3.org/1999/xlink" width="1536pt" height="700pt" viewBox="0 0 1536 700" version="1.1">
<defs>
<clipPath id="clip1">
  <path d="M 49 303.058594 L 1020.941406 303.058594 L 1020.941406 418.441406 L 49 418.441406 Z M 49 303.058594 "/>
</clipPath>
<clipPath id="clip2">
  <path d="M 170.683594 508.355469 L 755.585938 508.355469 L 755.585938 558.96875 L 170.683594 558.96875 Z M 170.683594 508.355469 "/>
</clipPath>
<clipPath id="clip3">
  <path d="M 509 509.03125 L 523 509.03125 L 523 571 L 509 571 Z M 509 509.03125 "/>
</clipPath>
<clipPath id="clip4">
  <path d="M 1110 195 L 1431 195 L 1431 516.613281 L 1110 516.613281 Z M 1110 195 "/>
</clipPath>
</defs>
<g id="surface1">
<g clip-path="url(#clip1)" clip-rule="nonzero">
<path style=" stroke:none;fill-rule:nonzero;fill:rgb(22.744751%,22.744751%,22.744751%);fill-opacity:1;" d="M 51.390625 403.511719 C 51.792969 404.011719 52.089844 404.910156 52.289063 406.207031 C 52.492188 406.90625 52.640625 407.582031 52.738281 408.230469 C 52.839844 408.878906 53.089844 409.601563 53.488281 410.402344 C 54.386719 411.601563 54.386719 411.601563 54.386719 411.601563 C 55.386719 412.101563 56.261719 412.675781 57.007813 413.324219 C 57.757813 413.972656 58.730469 414.894531 59.929688 416.09375 C 61.878906 416.246094 61.878906 416.246094 61.878906 416.246094 C 62.574219 416.246094 63.199219 416.191406 63.75 416.09375 C 64.300781 415.992188 65.222656 415.796875 66.523438 415.496094 C 68.769531 415.195313 68.769531 415.195313 68.769531 415.195313 C 69.21875 413.25 69.21875 413.25 69.21875 413.25 C 69.617188 412.851563 70.316406 412.449219 71.316406 412.050781 C 72.015625 411.75 72.738281 411.402344 73.488281 411 C 74.238281 410.601563 74.859375 410.003906 75.363281 409.203125 C 75.960938 407.253906 75.960938 407.253906 75.960938 407.253906 C 75.960938 405.757813 76.1875 404.257813 76.636719 402.761719 C 77.085938 401.261719 77.558594 399.714844 78.058594 398.117188 C 78.457031 397.121094 78.832031 396.121094 79.183594 395.121094 C 79.53125 394.125 79.804688 393.074219 80.007813 391.972656 C 80.203125 391.777344 80.457031 391.578125 80.753906 391.375 C 81.054688 391.175781 81.304688 390.925781 81.503906 390.625 C 83.003906 389.277344 83.003906 389.277344 83.003906 389.277344 C 82.402344 387.628906 82.402344 387.628906 82.402344 387.628906 C 82.300781 387.429688 82.328125 387.132813 82.476563 386.730469 C 82.628906 386.332031 82.800781 386.035156 83.003906 385.832031 C 84.949219 385.53125 84.949219 385.53125 84.949219 385.53125 C 85.550781 383.585938 85.550781 383.585938 85.550781 383.585938 C 85.75 382.886719 85.972656 382.160156 86.222656 381.414063 C 86.472656 380.664063 86.796875 379.890625 87.195313 379.089844 C 87.296875 380.289063 87.695313 381.4375 88.394531 382.535156 C 87.996094 384.035156 88.144531 385.285156 88.84375 386.28125 C 89.542969 387.28125 90.140625 388.078125 90.644531 388.679688 C 90.84375 388.878906 91.066406 389.105469 91.316406 389.351563 C 91.566406 389.601563 91.691406 389.828125 91.691406 390.027344 C 92.140625 391.675781 92.140625 391.675781 92.140625 391.675781 C 93.789063 391.824219 93.789063 391.824219 93.789063 391.824219 C 95.683594 392.125 97.484375 392.273438 99.183594 392.273438 C 101.777344 392.273438 104.175781 392.050781 106.375 391.601563 C 108.570313 391.152344 110.816406 390.625 113.113281 390.027344 C 114.710938 389.628906 116.308594 389.253906 117.910156 388.902344 C 119.503906 388.554688 121.554688 388.628906 124.050781 389.128906 C 124.25 392.324219 123.851563 394.546875 122.851563 395.792969 C 121.851563 397.042969 119.855469 398.066406 116.859375 398.867188 C 111.917969 400.214844 111.917969 400.214844 111.917969 400.214844 C 114.914063 403.660156 114.914063 403.660156 114.914063 403.660156 C 115.3125 404.058594 115.660156 404.433594 115.960938 404.785156 C 116.261719 405.132813 116.609375 405.457031 117.011719 405.757813 C 118.109375 406.757813 118.832031 407.554688 119.183594 408.15625 C 119.53125 408.753906 119.558594 409.453125 119.257813 410.25 C 118.65625 412.5 118.65625 412.5 118.65625 412.5 C 120.605469 413.398438 120.605469 413.398438 120.605469 413.398438 C 121.105469 413.597656 121.753906 413.996094 122.554688 414.597656 C 123.050781 414.996094 123.625 415.398438 124.277344 415.796875 C 124.925781 416.191406 125.949219 416.542969 127.347656 416.84375 C 129.84375 416.742188 132.238281 416.167969 134.539063 415.121094 C 136.835938 414.070313 138.90625 412.722656 140.753906 411.074219 C 142.601563 409.429688 144.203125 407.582031 145.550781 405.53125 C 146.898438 403.488281 148.070313 401.164063 149.070313 398.566406 C 149.371094 396.269531 149.394531 394.046875 149.144531 391.898438 C 148.894531 389.753906 148.570313 387.679688 148.171875 385.683594 C 147.96875 384.882813 147.847656 384.183594 147.796875 383.585938 C 147.746094 382.984375 147.621094 382.335938 147.421875 381.636719 C 150.21875 380.339844 152.742188 378.691406 154.988281 376.695313 C 157.234375 374.695313 158.90625 372.648438 160.007813 370.550781 C 161.503906 367.703125 161.503906 367.703125 161.503906 367.703125 C 158.808594 366.65625 158.808594 366.65625 158.808594 366.65625 C 158.605469 366.558594 158.359375 366.382813 158.058594 366.132813 C 157.757813 365.882813 157.507813 365.660156 157.308594 365.457031 C 156.808594 364.957031 156.1875 364.433594 155.4375 363.882813 C 154.6875 363.335938 153.511719 363.011719 151.917969 362.910156 C 151.515625 362.609375 151.167969 362.3125 150.867188 362.011719 C 150.570313 361.710938 150.316406 361.414063 150.121094 361.113281 C 149.519531 359.316406 149.519531 359.316406 149.519531 359.316406 C 147.574219 359.464844 147.574219 359.464844 147.574219 359.464844 C 145.972656 359.566406 144.574219 359.863281 143.378906 360.363281 C 143.175781 360.265625 142.578125 360.214844 141.578125 360.214844 C 140.582031 357.816406 139.78125 355.296875 139.183594 352.648438 C 138.582031 350.003906 138.035156 347.230469 137.535156 344.332031 C 137.132813 342.335938 136.710938 340.3125 136.261719 338.265625 C 135.8125 336.21875 135.335938 334.199219 134.839844 332.199219 C 134.738281 329.703125 134.539063 327.429688 134.238281 325.382813 C 133.9375 323.335938 133.589844 321.261719 133.191406 319.164063 C 132.988281 318.265625 132.816406 317.367188 132.664063 316.46875 C 132.515625 315.570313 132.339844 314.570313 132.140625 313.472656 C 131.390625 312.125 131.390625 312.125 131.390625 312.125 C 130.292969 311.027344 128.746094 310.152344 126.75 309.5 C 124.75 308.851563 122.703125 308.28125 120.605469 307.777344 C 119.40625 307.378906 118.257813 307.03125 117.160156 306.730469 C 116.058594 306.429688 115.261719 306.128906 114.761719 305.832031 C 112.367188 304.332031 112.367188 304.332031 112.367188 304.332031 C 110.566406 306.878906 110.566406 306.878906 110.566406 306.878906 C 107.96875 310.875 105.398438 314.296875 102.851563 317.140625 C 100.304688 319.988281 97.382813 322.160156 94.089844 323.660156 C 91.390625 323.210938 91.390625 323.210938 91.390625 323.210938 C 90.691406 323.210938 90.117188 323.285156 89.667969 323.433594 C 89.21875 323.585938 88.792969 323.757813 88.394531 323.957031 C 86.746094 323.808594 86.746094 323.808594 86.746094 323.808594 C 85.699219 325.308594 85.699219 325.308594 85.699219 325.308594 C 84.101563 327.207031 82.777344 329.152344 81.730469 331.148438 C 80.679688 333.148438 79.707031 335.144531 78.808594 337.140625 C 78.007813 338.84375 77.183594 340.488281 76.335938 342.085938 C 75.484375 343.683594 74.363281 345.484375 72.964844 347.480469 C 72.761719 348.078125 72.664063 348.601563 72.664063 349.050781 C 72.664063 349.503906 72.714844 349.929688 72.816406 350.324219 C 71.914063 352.324219 70.992188 354.273438 70.042969 356.167969 C 69.09375 358.066406 68.171875 359.964844 67.273438 361.863281 C 64.375 367.757813 61.601563 373.5 58.957031 379.089844 C 56.308594 384.683594 53.738281 390.527344 51.242188 396.617188 C 51.09375 399.765625 51.09375 399.765625 51.09375 399.765625 C 49.144531 401.261719 49.144531 401.261719 49.144531 401.261719 C 51.390625 403.511719 51.390625 403.511719 51.390625 403.511719 Z M 97.085938 362.160156 C 98.582031 359.367188 100.480469 356.417969 102.777344 353.324219 C 105.074219 350.226563 107.472656 347.328125 109.96875 344.632813 C 110.71875 343.136719 110.71875 343.136719 110.71875 343.136719 C 111.816406 347.03125 112.839844 350.902344 113.789063 354.746094 C 114.738281 358.589844 115.609375 362.363281 116.410156 366.054688 C 112.914063 366.757813 109.667969 367.253906 106.671875 367.554688 C 103.675781 367.855469 100.429688 368.105469 96.933594 368.304688 C 96.234375 368.40625 95.5625 368.453125 94.914063 368.453125 C 94.261719 368.453125 93.585938 368.503906 92.890625 368.601563 C 94.1875 366.40625 95.535156 364.308594 96.933594 362.3125 C 97.085938 362.160156 97.085938 362.160156 97.085938 362.160156 Z M 231.019531 361.113281 C 228.921875 357.21875 226.324219 353.75 223.230469 350.699219 C 220.132813 347.65625 216.6875 344.859375 212.890625 342.3125 C 209.09375 339.765625 205.402344 337.195313 201.804688 334.59375 C 197.011719 333.496094 192.140625 331.75 187.199219 329.351563 C 182.253906 326.953125 177.085938 324.910156 171.691406 323.210938 C 170.992188 324.308594 170.542969 325.582031 170.34375 327.03125 C 170.144531 328.480469 169.695313 329.953125 168.996094 331.449219 C 169.496094 333.347656 170.019531 335.046875 170.570313 336.542969 C 171.117188 338.042969 171.394531 339.539063 171.394531 341.039063 C 170.691406 341.039063 170.019531 341.039063 169.371094 341.039063 C 168.71875 341.039063 168.445313 341.4375 168.546875 342.234375 C 168.746094 342.4375 168.769531 342.761719 168.621094 343.210938 C 168.472656 343.660156 168.34375 344.386719 168.246094 345.382813 C 169.445313 349.675781 170.269531 354.296875 170.71875 359.238281 C 171.167969 364.183594 171.140625 369.054688 170.644531 373.847656 C 169.84375 374.148438 169.296875 374.695313 168.996094 375.496094 C 168.792969 378.09375 168.296875 380.640625 167.496094 383.136719 C 166.695313 385.632813 165.898438 388.179688 165.101563 390.777344 C 165.101563 392.175781 164.824219 393.246094 164.277344 393.996094 C 163.726563 394.746094 163.304688 395.671875 163.003906 396.769531 C 163.203125 399.164063 163.425781 401.488281 163.675781 403.734375 C 163.925781 405.980469 164.375 408.03125 165.027344 409.878906 C 165.675781 411.726563 166.621094 413.347656 167.871094 414.746094 C 169.121094 416.144531 170.945313 417.144531 173.339844 417.742188 C 178.933594 415.148438 184.675781 412.722656 190.570313 410.476563 C 196.460938 408.230469 202.128906 405.734375 207.574219 402.984375 C 213.015625 400.238281 218.007813 397.066406 222.554688 393.472656 C 227.097656 389.878906 230.871094 385.433594 233.867188 380.140625 C 233.867188 379.441406 233.867188 378.867188 233.867188 378.417969 C 233.867188 377.96875 233.914063 377.59375 234.015625 377.292969 C 234.113281 376.992188 234.214844 376.671875 234.316406 376.320313 C 234.414063 375.96875 234.515625 375.546875 234.613281 375.046875 C 234.316406 369.652344 233.117188 365.007813 231.019531 361.113281 Z M 197.535156 384.632813 C 196.984375 385.035156 196.5625 385.53125 196.261719 386.132813 C 194.964844 386.230469 193.839844 386.457031 192.890625 386.804688 C 191.941406 387.15625 191.042969 387.53125 190.195313 387.929688 C 189.34375 388.328125 188.496094 388.703125 187.648438 389.054688 C 186.796875 389.402344 185.875 389.628906 184.875 389.726563 C 185.574219 385.632813 186.125 381.839844 186.523438 378.339844 C 186.921875 374.847656 187.097656 371.425781 187.046875 368.078125 C 186.996094 364.734375 186.722656 361.390625 186.222656 358.042969 C 185.722656 354.695313 184.972656 351.125 183.976563 347.328125 C 184.375 347.03125 184.925781 346.878906 185.625 346.878906 C 186.523438 347.679688 187.847656 348.328125 189.59375 348.828125 C 191.339844 349.328125 193.316406 350.128906 195.511719 351.226563 C 196.910156 351.324219 198.136719 351.625 199.183594 352.125 C 200.230469 352.625 201.230469 353.148438 202.179688 353.695313 C 203.128906 354.246094 204.101563 354.796875 205.101563 355.34375 C 206.097656 355.894531 207.246094 356.269531 208.546875 356.46875 C 209.144531 357.769531 209.917969 358.867188 210.867188 359.765625 C 211.816406 360.664063 212.789063 361.539063 213.789063 362.386719 C 214.789063 363.234375 215.785156 364.132813 216.785156 365.082031 C 217.785156 366.03125 218.585938 367.105469 219.183594 368.304688 C 218.285156 370.402344 217.136719 372.199219 215.738281 373.695313 C 214.339844 375.195313 212.765625 376.519531 211.019531 377.667969 C 209.269531 378.816406 207.371094 379.839844 205.324219 380.738281 C 203.277344 381.636719 201.207031 382.488281 199.109375 383.285156 C 198.609375 383.785156 198.082031 384.234375 197.535156 384.632813 Z M 305.777344 361.113281 C 303.679688 357.21875 301.082031 353.75 297.984375 350.699219 C 294.890625 347.65625 291.445313 344.859375 287.648438 342.3125 C 283.851563 339.765625 280.15625 337.195313 276.5625 334.59375 C 271.769531 333.496094 266.898438 331.75 261.957031 329.351563 C 257.011719 326.953125 251.84375 324.910156 246.449219 323.210938 C 245.75 324.308594 245.300781 325.582031 245.101563 327.03125 C 244.898438 328.480469 244.449219 329.953125 243.753906 331.449219 C 244.25 333.347656 244.777344 335.046875 245.328125 336.542969 C 245.875 338.042969 246.148438 339.539063 246.148438 341.039063 C 245.449219 341.039063 244.777344 341.039063 244.128906 341.039063 C 243.476563 341.039063 243.203125 341.4375 243.304688 342.234375 C 243.503906 342.4375 243.527344 342.761719 243.378906 343.210938 C 243.230469 343.660156 243.101563 344.386719 243.003906 345.382813 C 244.203125 349.675781 245.027344 354.296875 245.476563 359.238281 C 245.925781 364.183594 245.898438 369.054688 245.402344 373.847656 C 244.601563 374.148438 244.054688 374.695313 243.753906 375.496094 C 243.550781 378.09375 243.054688 380.640625 242.253906 383.136719 C 241.453125 385.632813 240.65625 388.179688 239.859375 390.777344 C 239.859375 392.175781 239.582031 393.246094 239.035156 393.996094 C 238.484375 394.746094 238.058594 395.671875 237.761719 396.769531 C 237.960938 399.164063 238.183594 401.488281 238.433594 403.734375 C 238.683594 405.980469 239.132813 408.03125 239.78125 409.878906 C 240.429688 411.726563 241.378906 413.347656 242.628906 414.746094 C 243.878906 416.144531 245.699219 417.144531 248.097656 417.742188 C 253.691406 415.148438 259.433594 412.722656 265.328125 410.476563 C 271.21875 408.230469 276.886719 405.734375 282.332031 402.984375 C 287.773438 400.238281 292.765625 397.066406 297.3125 393.472656 C 301.855469 389.878906 305.625 385.433594 308.621094 380.140625 C 308.621094 379.441406 308.621094 378.867188 308.621094 378.417969 C 308.621094 377.96875 308.671875 377.59375 308.773438 377.292969 C 308.871094 376.992188 308.972656 376.671875 309.074219 376.320313 C 309.171875 375.96875 309.269531 375.546875 309.371094 375.046875 C 309.074219 369.652344 307.875 365.007813 305.777344 361.113281 Z M 272.292969 384.632813 C 271.742188 385.035156 271.320313 385.53125 271.019531 386.132813 C 269.71875 386.230469 268.597656 386.457031 267.648438 386.804688 C 266.699219 387.15625 265.800781 387.53125 264.953125 387.929688 C 264.101563 388.328125 263.253906 388.703125 262.40625 389.054688 C 261.554688 389.402344 260.628906 389.628906 259.632813 389.726563 C 260.332031 385.632813 260.882813 381.839844 261.28125 378.339844 C 261.679688 374.847656 261.855469 371.425781 261.804688 368.078125 C 261.753906 364.734375 261.480469 361.390625 260.980469 358.042969 C 260.480469 354.695313 259.730469 351.125 258.734375 347.328125 C 259.132813 347.03125 259.683594 346.878906 260.382813 346.878906 C 261.28125 347.679688 262.605469 348.328125 264.351563 348.828125 C 266.097656 349.328125 268.074219 350.128906 270.269531 351.226563 C 271.667969 351.324219 272.890625 351.625 273.941406 352.125 C 274.988281 352.625 275.988281 353.148438 276.9375 353.695313 C 277.886719 354.246094 278.859375 354.796875 279.859375 355.34375 C 280.855469 355.894531 282.003906 356.269531 283.304688 356.46875 C 283.902344 357.769531 284.675781 358.867188 285.625 359.765625 C 286.574219 360.664063 287.546875 361.539063 288.546875 362.386719 C 289.546875 363.234375 290.542969 364.132813 291.542969 365.082031 C 292.542969 366.03125 293.34375 367.105469 293.941406 368.304688 C 293.042969 370.402344 291.894531 372.199219 290.496094 373.695313 C 289.09375 375.195313 287.523438 376.519531 285.777344 377.667969 C 284.027344 378.816406 282.128906 379.839844 280.082031 380.738281 C 278.035156 381.636719 275.964844 382.488281 273.867188 383.285156 C 273.363281 383.785156 272.839844 384.234375 272.292969 384.632813 Z M 372.519531 350.851563 C 373.269531 351.699219 373.992188 352.625 374.691406 353.621094 C 375.789063 353.421875 376.488281 353.546875 376.789063 353.996094 C 377.089844 354.445313 377.335938 354.96875 377.539063 355.570313 C 381.03125 357.066406 384.652344 358.117188 388.398438 358.714844 C 392.144531 359.316406 396.113281 359.714844 400.308594 359.914063 C 402.007813 360.316406 403.457031 360.714844 404.652344 361.113281 C 405.851563 361.511719 407.050781 361.3125 408.25 360.511719 C 410.246094 361.613281 412.691406 362.609375 415.589844 363.507813 C 418.484375 364.410156 421.230469 365.507813 423.832031 366.804688 C 424.03125 366.804688 424.253906 366.855469 424.503906 366.957031 C 424.753906 367.054688 425.027344 367.15625 425.328125 367.253906 C 425.328125 367.65625 425.425781 367.953125 425.628906 368.152344 C 425.828125 368.355469 426.027344 368.527344 426.226563 368.679688 C 426.425781 368.828125 426.578125 369.003906 426.675781 369.203125 C 426.773438 369.402344 426.773438 369.703125 426.675781 370.101563 C 426.378906 371.203125 425.929688 372.125 425.328125 372.875 C 424.730469 373.621094 424.078125 374.320313 423.382813 374.96875 C 422.679688 375.621094 422.007813 376.296875 421.359375 376.992188 C 420.707031 377.691406 420.234375 378.542969 419.933594 379.539063 C 417.136719 380.941406 414.265625 382.460938 411.320313 384.109375 C 408.375 385.757813 405.277344 387.28125 402.03125 388.679688 C 398.785156 390.078125 395.339844 391.175781 391.695313 391.972656 C 388.046875 392.773438 384.179688 392.972656 380.085938 392.574219 C 378.683594 393.375 377.835938 394.347656 377.539063 395.496094 C 377.238281 396.644531 377.136719 397.867188 377.238281 399.164063 C 377.335938 400.464844 377.460938 401.738281 377.613281 402.984375 C 377.761719 404.234375 377.585938 405.308594 377.089844 406.207031 C 376.988281 406.507813 377.0625 406.757813 377.3125 406.957031 C 377.5625 407.15625 377.8125 407.332031 378.0625 407.480469 C 378.308594 407.628906 378.460938 407.78125 378.511719 407.929688 C 378.5625 408.078125 378.386719 408.304688 377.988281 408.605469 C 377.886719 408.804688 377.785156 409.003906 377.6875 409.203125 C 377.585938 409.40625 377.539063 409.703125 377.539063 410.101563 C 378.035156 410.101563 378.261719 410.378906 378.210938 410.925781 C 378.160156 411.476563 378.386719 411.800781 378.886719 411.898438 C 379.285156 413 379.808594 413.949219 380.460938 414.746094 C 381.109375 415.542969 381.832031 416.34375 382.632813 417.144531 C 383.929688 416.941406 385.253906 416.894531 386.601563 416.992188 C 387.949219 417.09375 389.296875 417.167969 390.648438 417.21875 C 391.996094 417.265625 393.242188 417.191406 394.390625 416.992188 C 395.539063 416.792969 396.5625 416.292969 397.464844 415.496094 C 397.164063 416.191406 397.289063 416.492188 397.835938 416.394531 C 398.386719 416.292969 398.859375 416.292969 399.261719 416.394531 C 403.65625 415.097656 408.101563 413.472656 412.59375 411.523438 C 417.089844 409.578125 421.359375 407.28125 425.402344 404.632813 C 429.449219 401.988281 433.066406 398.917969 436.265625 395.421875 C 439.460938 391.925781 441.90625 387.980469 443.605469 383.585938 C 444.601563 381.289063 445.027344 378.941406 444.878906 376.542969 C 444.730469 374.148438 444.554688 371.449219 444.355469 368.453125 C 443.554688 366.558594 442.429688 364.78125 440.984375 363.136719 C 439.535156 361.488281 438.609375 359.914063 438.210938 358.414063 C 437.613281 357.71875 437.089844 357.46875 436.640625 357.667969 C 436.191406 357.867188 435.765625 357.46875 435.367188 356.46875 C 435.464844 355.371094 435.316406 354.144531 434.917969 352.796875 C 434.515625 351.449219 433.867188 350.175781 432.96875 348.976563 C 432.070313 347.777344 430.96875 346.757813 429.671875 345.90625 C 428.375 345.058594 426.828125 344.582031 425.027344 344.484375 C 424.730469 343.285156 424.078125 342.410156 423.082031 341.863281 C 422.082031 341.3125 420.957031 340.886719 419.710938 340.589844 C 418.460938 340.289063 417.238281 339.964844 416.039063 339.613281 C 414.839844 339.265625 413.890625 338.640625 413.195313 337.742188 C 413.394531 337.140625 413.34375 336.746094 413.042969 336.542969 C 412.746094 336.34375 412.644531 335.996094 412.746094 335.496094 C 414.742188 335.296875 416.640625 335.023438 418.4375 334.671875 C 420.234375 334.320313 421.679688 333.648438 422.78125 332.648438 C 424.179688 332.847656 425.675781 332.722656 427.277344 332.273438 C 428.871094 331.824219 430.496094 331.375 432.144531 330.925781 C 433.792969 330.476563 435.367188 330.226563 436.863281 330.175781 C 438.363281 330.125 439.660156 330.699219 440.757813 331.898438 C 444.355469 331.5 448.398438 331.148438 452.894531 330.851563 C 457.390625 330.550781 461.882813 330.949219 466.378906 332.046875 C 467.675781 331.351563 468.925781 330.601563 470.125 329.800781 C 471.320313 329.003906 472.46875 328.203125 473.570313 327.40625 C 474.066406 325.308594 473.945313 323.636719 473.195313 322.386719 C 472.445313 321.136719 471.472656 319.964844 470.273438 318.863281 C 470.171875 317.765625 469.824219 316.71875 469.222656 315.71875 C 468.625 314.722656 467.949219 313.695313 467.203125 312.648438 C 466.453125 311.597656 465.726563 310.527344 465.03125 309.425781 C 464.328125 308.328125 463.78125 307.179688 463.382813 305.980469 C 456.789063 304.085938 450.496094 303.308594 444.503906 303.660156 C 438.511719 304.011719 432.667969 304.933594 426.976563 306.429688 C 421.285156 307.929688 415.714844 309.628906 410.273438 311.523438 C 404.828125 313.421875 399.410156 314.871094 394.015625 315.867188 C 393.816406 316.371094 393.917969 316.617188 394.316406 316.617188 C 394.714844 316.617188 394.917969 316.820313 394.917969 317.21875 C 392.820313 317.816406 390.570313 318.542969 388.175781 319.390625 C 385.777344 320.238281 383.480469 321.289063 381.28125 322.535156 C 379.085938 323.785156 377.0625 325.308594 375.214844 327.105469 C 373.367188 328.902344 371.996094 331.101563 371.09375 333.695313 C 371.292969 335.296875 371.269531 336.542969 371.019531 337.441406 C 370.769531 338.339844 370.445313 339.589844 370.046875 341.1875 C 370.84375 342.289063 371.195313 343.308594 371.09375 344.257813 C 370.996094 345.207031 370.796875 346.429688 370.496094 347.929688 C 371.09375 349.027344 371.769531 350.003906 372.519531 350.851563 Z M 534.84375 358.191406 C 532.945313 353.847656 530.796875 349.726563 528.402344 345.832031 C 528.800781 345.433594 528.949219 344.78125 528.851563 343.882813 C 528.75 343.386719 528.449219 343.113281 527.953125 343.058594 C 527.449219 343.011719 527.25 342.636719 527.351563 341.9375 C 528.347656 341.4375 528.972656 340.664063 529.226563 339.613281 C 529.472656 338.566406 529.847656 337.542969 530.347656 336.542969 C 529.949219 335.246094 529.546875 334.371094 529.148438 333.921875 C 528.75 333.472656 528.402344 332.550781 528.101563 331.148438 C 527.699219 331.050781 527.425781 331.101563 527.277344 331.300781 C 527.128906 331.5 526.851563 331.550781 526.453125 331.449219 C 526.253906 330.550781 525.878906 329.851563 525.328125 329.351563 C 524.78125 328.851563 524.207031 328.378906 523.605469 327.929688 C 523.007813 327.480469 522.457031 326.980469 521.957031 326.429688 C 521.457031 325.882813 521.160156 325.109375 521.058594 324.109375 C 519.960938 323.011719 518.6875 322.363281 517.238281 322.160156 C 515.789063 321.960938 514.46875 321.5625 513.269531 320.960938 C 511.96875 321.761719 510.996094 322.511719 510.347656 323.210938 C 509.699219 323.910156 508.972656 324.957031 508.175781 326.355469 C 507.074219 326.558594 506.25 326.65625 505.703125 326.65625 C 505.152344 326.65625 504.429688 326.707031 503.53125 326.804688 C 502.332031 328.304688 501.308594 329.578125 500.460938 330.625 C 499.609375 331.675781 498.289063 332.597656 496.492188 333.398438 C 496.492188 335.046875 496.492188 335.046875 496.492188 335.046875 C 495.691406 335.246094 494.992188 335.570313 494.394531 336.019531 C 493.792969 336.46875 493.21875 336.945313 492.671875 337.441406 C 492.121094 337.941406 491.546875 338.390625 490.949219 338.789063 C 490.347656 339.191406 489.597656 339.488281 488.699219 339.6875 C 487.898438 341.089844 486.828125 342.160156 485.480469 342.910156 C 484.128906 343.660156 483.105469 344.78125 482.40625 346.28125 C 481.90625 346.382813 481.484375 346.632813 481.132813 347.03125 C 480.785156 347.429688 480.460938 347.855469 480.160156 348.304688 C 479.859375 348.753906 479.535156 349.105469 479.1875 349.351563 C 478.835938 349.601563 478.363281 349.628906 477.765625 349.425781 C 475.066406 352.625 472.269531 355.894531 469.375 359.238281 C 466.476563 362.585938 463.90625 366.230469 461.660156 370.175781 C 459.410156 374.125 457.6875 378.417969 456.488281 383.058594 C 455.292969 387.703125 455.089844 392.875 455.890625 398.566406 C 456.988281 401.261719 458.410156 403.835938 460.160156 406.28125 C 461.90625 408.730469 463.953125 410.828125 466.304688 412.574219 C 468.648438 414.324219 471.34375 415.59375 474.394531 416.394531 C 477.4375 417.191406 480.761719 417.34375 484.355469 416.84375 C 488.148438 417.640625 491.472656 417.867188 494.316406 417.519531 C 497.164063 417.167969 500.085938 416.445313 503.082031 415.34375 C 504.28125 415.445313 505.679688 415.371094 507.277344 415.121094 C 508.875 414.871094 510.472656 414.472656 512.070313 413.921875 C 513.667969 413.375 515.21875 412.773438 516.714844 412.125 C 518.214844 411.476563 519.511719 410.851563 520.609375 410.25 C 522.007813 409.953125 523.382813 409.652344 524.730469 409.351563 C 526.078125 409.054688 527.300781 408.554688 528.402344 407.855469 C 530.097656 406.457031 531.945313 405.257813 533.945313 404.257813 C 535.941406 403.261719 537.636719 401.863281 539.039063 400.066406 C 540.136719 399.464844 541.082031 398.542969 541.882813 397.292969 C 542.683594 396.046875 543.332031 394.648438 543.832031 393.097656 C 544.332031 391.550781 544.679688 389.953125 544.878906 388.304688 C 545.078125 386.65625 545.078125 385.132813 544.878906 383.734375 C 544.679688 382.636719 544.378906 381.539063 543.980469 380.4375 C 543.582031 379.339844 543.15625 378.265625 542.707031 377.21875 C 542.257813 376.167969 541.882813 375.097656 541.585938 373.996094 C 541.285156 372.898438 541.183594 371.75 541.285156 370.550781 C 538.886719 366.65625 536.738281 362.535156 534.84375 358.191406 Z M 513.121094 389.800781 C 510.125 391.449219 506.527344 392.773438 502.332031 393.773438 C 500.335938 393.773438 498.160156 393.996094 495.816406 394.445313 C 493.46875 394.894531 491.070313 395.222656 488.625 395.421875 C 486.175781 395.621094 483.804688 395.570313 481.507813 395.269531 C 479.210938 394.972656 477.214844 394.125 475.515625 392.722656 C 475.613281 390.328125 476.0625 388.230469 476.863281 386.429688 C 477.664063 384.632813 478.609375 382.9375 479.710938 381.335938 C 480.808594 379.742188 481.933594 378.167969 483.082031 376.617188 C 484.230469 375.070313 485.203125 373.347656 486.003906 371.449219 C 486.503906 371.25 486.800781 371.175781 486.902344 371.226563 C 487 371.277344 487.25 371.203125 487.652344 371 C 489.949219 368.105469 492.542969 365.558594 495.441406 363.359375 C 498.335938 361.164063 501.234375 358.917969 504.132813 356.617188 C 504.628906 357.019531 505.203125 357.34375 505.855469 357.59375 C 506.503906 357.84375 507.128906 357.992188 507.726563 358.042969 C 508.324219 358.09375 508.875 357.941406 509.375 357.59375 C 509.875 357.242188 510.222656 356.667969 510.421875 355.871094 C 511.023438 356.46875 511.570313 356.570313 512.070313 356.167969 C 512.570313 355.769531 512.917969 355.371094 513.121094 354.96875 C 515.117188 358.066406 516.914063 361.390625 518.511719 364.933594 C 520.109375 368.480469 522.007813 371.800781 524.207031 374.894531 C 524.207031 375.894531 524.253906 376.617188 524.355469 377.066406 C 524.453125 377.515625 524.753906 378.140625 525.253906 378.941406 C 525.152344 380.339844 524.78125 381.390625 524.132813 382.085938 C 523.480469 382.785156 522.957031 383.683594 522.558594 384.785156 C 519.261719 386.484375 516.117188 388.152344 513.121094 389.800781 Z M 656.34375 411.675781 C 657.039063 411.328125 657.839844 411 658.738281 410.703125 C 658.9375 410.203125 659.164063 409.703125 659.414063 409.203125 C 659.660156 408.703125 659.886719 408.207031 660.089844 407.703125 C 662.085938 403.113281 664.007813 398.191406 665.855469 392.949219 C 667.703125 387.703125 668.425781 381.886719 668.027344 375.496094 C 668.628906 374.199219 669.101563 373 669.453125 371.898438 C 669.800781 370.800781 670.074219 369.628906 670.273438 368.378906 C 670.472656 367.132813 670.550781 365.78125 670.5 364.332031 C 670.449219 362.886719 670.375 360.863281 670.273438 358.265625 C 670.875 357.269531 671.398438 355.921875 671.847656 354.222656 C 672.296875 352.523438 672.421875 350.976563 672.222656 349.578125 C 671.773438 346.730469 671.773438 346.730469 671.773438 346.730469 C 674.621094 347.03125 674.621094 347.03125 674.621094 347.03125 C 674.417969 346.632813 674.269531 346.28125 674.171875 345.980469 C 674.070313 345.683594 673.96875 345.382813 673.871094 345.082031 C 673.46875 344.183594 673.144531 343.308594 672.898438 342.460938 C 672.648438 341.613281 672.621094 340.6875 672.820313 339.6875 C 671.023438 338.492188 669.773438 336.746094 669.078125 334.445313 C 668.675781 333.648438 667.726563 332.847656 666.230469 332.046875 C 666.027344 331.949219 665.878906 331.851563 665.78125 331.75 C 665.679688 331.652344 665.429688 331.449219 665.03125 331.148438 C 664.230469 330.453125 663.832031 329.601563 663.832031 328.601563 C 663.632813 328.503906 663.40625 328.402344 663.160156 328.304688 C 662.910156 328.203125 662.636719 328.054688 662.335938 327.855469 C 661.234375 327.355469 660.089844 326.855469 658.890625 326.355469 C 657.691406 325.855469 656.542969 325.605469 655.445313 325.605469 C 654.34375 325.605469 653.292969 325.90625 652.296875 326.503906 C 650.597656 330.699219 648.351563 334.199219 645.554688 336.992188 C 642.757813 339.789063 639.863281 342.386719 636.867188 344.78125 C 635.269531 346.082031 633.742188 347.382813 632.296875 348.679688 C 630.847656 349.976563 629.226563 351.476563 627.429688 353.171875 C 626.628906 353.273438 625.828125 353.546875 625.03125 353.996094 C 624.230469 354.445313 623.433594 354.96875 622.632813 355.570313 C 621.4375 356.371094 620.164063 357.144531 618.8125 357.890625 C 617.464844 358.640625 615.992188 359.015625 614.394531 359.015625 C 612.996094 359.015625 611.398438 358.316406 609.601563 356.917969 C 609.398438 356.019531 609.300781 355.195313 609.300781 354.445313 C 609.300781 353.695313 609.351563 352.972656 609.449219 352.273438 C 609.75 350.675781 609.648438 349.425781 609.152344 348.527344 C 609 347.03125 609 347.03125 609 347.03125 C 609.5 345.734375 609.722656 344.484375 609.675781 343.285156 C 609.625 342.085938 609.375 340.914063 608.925781 339.765625 C 608.476563 338.617188 607.878906 337.46875 607.128906 336.320313 C 606.378906 335.171875 605.605469 333.996094 604.804688 332.796875 C 604.207031 331.699219 603.554688 330.75 602.859375 329.953125 C 601.960938 329.753906 601.136719 329.527344 600.386719 329.277344 C 599.636719 329.027344 598.714844 328.753906 597.617188 328.453125 C 596.816406 328.453125 596.214844 327.953125 595.816406 326.953125 C 595.519531 325.308594 595.519531 325.308594 595.519531 325.308594 C 594.519531 324.109375 592.917969 323.058594 590.722656 322.160156 C 587.527344 323.359375 585.105469 324.984375 583.457031 327.03125 C 581.808594 329.078125 580.085938 331.652344 578.289063 334.746094 C 577.691406 335.746094 577.066406 336.769531 576.417969 337.816406 C 575.765625 338.863281 575.042969 339.988281 574.246094 341.1875 C 573.246094 342.683594 572.019531 344.882813 570.574219 347.777344 C 569.125 350.675781 567.601563 353.847656 566.003906 357.292969 C 564.40625 360.738281 562.808594 364.285156 561.210938 367.929688 C 559.613281 371.578125 558.1875 374.894531 556.941406 377.890625 C 555.691406 380.886719 554.667969 383.335938 553.871094 385.234375 C 553.070313 387.132813 552.671875 388.128906 552.671875 388.230469 C 551.773438 390.328125 551.296875 392.796875 551.246094 395.644531 C 551.195313 398.492188 551.445313 401.316406 551.996094 404.109375 C 552.542969 406.90625 553.34375 409.527344 554.394531 411.976563 C 555.441406 414.421875 556.613281 416.34375 557.914063 417.742188 C 559.710938 418.042969 561.007813 418.191406 561.808594 418.191406 C 563.507813 418.191406 564.855469 417.667969 565.855469 416.617188 C 566.851563 415.570313 568.199219 413.300781 569.898438 409.800781 C 570.097656 409.203125 570.199219 408.554688 570.199219 407.855469 C 570.296875 407.355469 570.371094 406.859375 570.425781 406.355469 C 570.472656 405.859375 570.597656 405.359375 570.796875 404.859375 C 571.097656 404.359375 571.472656 403.882813 571.921875 403.433594 C 572.371094 402.984375 572.796875 402.511719 573.195313 402.011719 C 573.894531 401.511719 574.34375 400.8125 574.542969 399.914063 C 574.144531 399.21875 574.042969 398.46875 574.246094 397.667969 C 574.742188 396.167969 575.492188 394.820313 576.492188 393.621094 C 577.488281 392.425781 578.4375 391.375 579.339844 390.476563 C 579.238281 389.277344 579.414063 387.855469 579.863281 386.207031 C 580.3125 384.558594 580.835938 382.9375 581.433594 381.335938 C 582.035156 379.742188 582.632813 378.316406 583.234375 377.066406 C 583.832031 375.820313 584.28125 374.996094 584.582031 374.597656 C 585.78125 372.648438 585.78125 372.648438 585.78125 372.648438 C 586.976563 374.894531 586.976563 374.894531 586.976563 374.894531 C 591.171875 383.386719 597.464844 387.628906 605.855469 387.628906 C 609.152344 387.628906 612.523438 387.082031 615.96875 385.980469 C 619.414063 384.882813 622.808594 383.460938 626.15625 381.710938 C 629.5 379.964844 632.722656 378.066406 635.816406 376.019531 C 638.914063 373.972656 641.757813 372 644.355469 370.101563 C 644.554688 369.503906 644.832031 369.152344 645.179688 369.054688 C 645.53125 368.953125 645.90625 368.902344 646.304688 368.902344 C 647.652344 370.402344 647.652344 370.402344 647.652344 370.402344 C 647.652344 371.300781 647.402344 371.898438 646.90625 372.199219 C 643.707031 383.285156 642.183594 392.425781 642.335938 399.613281 C 642.484375 406.804688 644.507813 411.851563 648.402344 414.746094 C 649.5 414.746094 650.472656 414.546875 651.324219 414.148438 C 652.171875 413.75 653.097656 413.300781 654.09375 412.796875 C 654.894531 412.402344 655.644531 412.027344 656.34375 411.675781 Z M 753.796875 328.226563 C 752.246094 327.082031 750.972656 325.65625 749.976563 323.957031 C 750.074219 324.859375 749.851563 325.132813 749.300781 324.78125 C 748.753906 324.433594 748.277344 324.707031 747.878906 325.605469 C 747.078125 325.605469 746.230469 325.15625 745.332031 324.257813 C 741.136719 325.058594 737.390625 325.65625 734.097656 326.054688 C 730.800781 326.457031 727.628906 326.878906 724.582031 327.328125 C 721.535156 327.777344 718.441406 328.355469 715.292969 329.050781 C 712.148438 329.753906 708.578125 330.75 704.582031 332.046875 C 702.386719 332.550781 700.289063 333 698.289063 333.398438 C 696.292969 333.796875 694.445313 334.296875 692.746094 334.894531 C 691.046875 335.496094 689.476563 336.269531 688.027344 337.21875 C 686.578125 338.167969 685.355469 339.390625 684.359375 340.886719 C 684.855469 342.585938 685.207031 344.257813 685.40625 345.90625 C 685.605469 347.554688 685.855469 349.152344 686.15625 350.699219 C 686.457031 352.25 686.929688 353.796875 687.578125 355.34375 C 688.226563 356.894531 689.25 358.316406 690.648438 359.613281 C 689.949219 361.511719 689.226563 363.234375 688.476563 364.78125 C 687.730469 366.332031 686.980469 367.855469 686.230469 369.351563 C 685.480469 370.851563 684.757813 372.398438 684.058594 373.996094 C 683.359375 375.59375 682.710938 377.292969 682.109375 379.089844 C 681.410156 378.992188 681.011719 379.164063 680.914063 379.613281 C 680.8125 380.0625 680.511719 380.339844 680.011719 380.4375 C 680.3125 381.839844 679.988281 383.136719 679.039063 384.332031 C 678.089844 385.53125 677.464844 386.878906 677.167969 388.378906 C 676.867188 389.777344 676.792969 391.324219 676.941406 393.023438 C 677.09375 394.722656 677.316406 396.445313 677.617188 398.191406 C 677.914063 399.941406 678.214844 401.613281 678.515625 403.210938 C 678.816406 404.808594 679.015625 406.257813 679.113281 407.554688 C 680.210938 408.054688 680.886719 408.78125 681.136719 409.726563 C 681.386719 410.679688 681.910156 411.5 682.710938 412.199219 C 684.605469 414.097656 687.054688 415.421875 690.050781 416.167969 C 693.046875 416.917969 696.191406 417.34375 699.488281 417.441406 C 702.785156 417.542969 706.03125 417.390625 709.226563 416.992188 C 712.421875 416.59375 715.167969 416.144531 717.46875 415.644531 C 718.265625 415.644531 718.964844 415.769531 719.5625 416.019531 C 720.164063 416.269531 720.914063 416.292969 721.8125 416.09375 C 725.503906 415.398438 728.875 414.796875 731.925781 414.296875 C 734.96875 413.796875 737.742188 413.097656 740.238281 412.199219 C 742.734375 411.300781 744.957031 409.976563 746.90625 408.230469 C 748.851563 406.484375 750.574219 403.960938 752.074219 400.664063 C 751.476563 400.765625 751.046875 400.640625 750.800781 400.289063 C 750.550781 399.941406 750.375 399.515625 750.277344 399.015625 C 750.175781 398.515625 750.050781 397.992188 749.902344 397.441406 C 749.753906 396.894531 749.476563 396.417969 749.078125 396.019531 C 748.179688 396.121094 747.429688 395.921875 746.832031 395.421875 C 746.230469 394.921875 745.65625 394.347656 745.109375 393.699219 C 744.558594 393.050781 743.984375 392.347656 743.386719 391.601563 C 742.785156 390.851563 742.085938 390.328125 741.289063 390.027344 C 738.988281 390.828125 736.46875 391.402344 733.722656 391.75 C 730.972656 392.101563 728.601563 392.824219 726.605469 393.921875 C 723.40625 393.824219 720.761719 393.898438 718.664063 394.148438 C 716.566406 394.398438 714.519531 394.648438 712.523438 394.894531 C 710.523438 395.144531 708.402344 395.320313 706.15625 395.421875 C 703.910156 395.519531 701.085938 395.320313 697.691406 394.820313 C 698.6875 392.125 699.839844 389.578125 701.136719 387.179688 C 702.433594 384.785156 703.882813 382.535156 705.480469 380.4375 C 706.679688 380.839844 708.050781 381.015625 709.601563 380.964844 C 711.148438 380.914063 712.472656 381.140625 713.570313 381.636719 C 714.371094 381.140625 715.492188 380.988281 716.941406 381.1875 C 718.390625 381.390625 719.511719 381.238281 720.3125 380.738281 C 720.710938 381.039063 721.035156 381.1875 721.289063 381.1875 C 721.535156 381.1875 721.910156 381.1875 722.410156 381.1875 C 724.808594 381.289063 726.980469 381.0625 728.929688 380.515625 C 730.875 379.964844 732.722656 379.238281 734.472656 378.339844 C 736.21875 377.441406 737.890625 376.417969 739.488281 375.269531 C 741.085938 374.125 742.683594 373 744.285156 371.898438 C 744.683594 370.902344 744.808594 369.929688 744.660156 368.976563 C 744.507813 368.03125 744.230469 367.15625 743.835938 366.355469 C 742.835938 366.457031 741.960938 366.28125 741.210938 365.832031 C 740.464844 365.382813 739.738281 364.808594 739.039063 364.109375 C 738.339844 363.410156 737.640625 362.6875 736.941406 361.9375 C 736.242188 361.1875 735.542969 360.566406 734.84375 360.0625 C 734.746094 359.664063 734.792969 359.390625 734.996094 359.238281 C 735.195313 359.089844 735.242188 358.765625 735.144531 358.265625 C 731.046875 358.367188 726.878906 358.617188 722.636719 359.015625 C 718.390625 359.414063 714.519531 359.464844 711.023438 359.164063 C 710.726563 358.566406 710.597656 357.792969 710.652344 356.84375 C 710.699219 355.894531 710.523438 354.96875 710.125 354.070313 C 711.023438 353.773438 711.921875 353.496094 712.824219 353.246094 C 713.722656 353 714.46875 352.574219 715.070313 351.972656 C 717.066406 352.175781 718.589844 352.027344 719.640625 351.523438 C 720.6875 351.027344 721.859375 351.027344 723.160156 351.523438 C 726.457031 349.527344 729.773438 348.230469 733.121094 347.628906 C 736.46875 347.03125 739.738281 346.457031 742.933594 345.90625 C 746.128906 345.359375 749.101563 344.460938 751.847656 343.210938 C 754.59375 341.960938 757.019531 339.640625 759.117188 336.242188 C 758.914063 335.546875 758.816406 335.023438 758.816406 334.671875 C 758.816406 334.320313 758.839844 333.996094 758.890625 333.695313 C 758.941406 333.398438 758.988281 333.074219 759.039063 332.722656 C 759.089844 332.375 759.0625 331.851563 758.964844 331.148438 C 757.066406 330.351563 755.34375 329.378906 753.796875 328.226563 Z M 834.773438 358.191406 C 832.875 353.847656 830.726563 349.726563 828.328125 345.832031 C 828.726563 345.433594 828.878906 344.78125 828.777344 343.882813 C 828.679688 343.386719 828.378906 343.113281 827.878906 343.058594 C 827.378906 343.011719 827.179688 342.636719 827.28125 341.9375 C 828.277344 341.4375 828.902344 340.664063 829.152344 339.613281 C 829.402344 338.566406 829.777344 337.542969 830.277344 336.542969 C 829.878906 335.246094 829.476563 334.371094 829.078125 333.921875 C 828.679688 333.472656 828.328125 332.550781 828.03125 331.148438 C 827.628906 331.050781 827.355469 331.101563 827.207031 331.300781 C 827.054688 331.5 826.78125 331.550781 826.382813 331.449219 C 826.179688 330.550781 825.804688 329.851563 825.257813 329.351563 C 824.707031 328.851563 824.136719 328.378906 823.535156 327.929688 C 822.9375 327.480469 822.386719 326.980469 821.886719 326.429688 C 821.386719 325.882813 821.085938 325.109375 820.988281 324.109375 C 819.886719 323.011719 818.613281 322.363281 817.167969 322.160156 C 815.71875 321.960938 814.398438 321.5625 813.199219 320.960938 C 811.898438 321.761719 810.925781 322.511719 810.277344 323.210938 C 809.625 323.910156 808.902344 324.957031 808.105469 326.355469 C 807.003906 326.558594 806.179688 326.65625 805.632813 326.65625 C 805.082031 326.65625 804.359375 326.707031 803.460938 326.804688 C 802.261719 328.304688 801.238281 329.578125 800.390625 330.625 C 799.539063 331.675781 798.21875 332.597656 796.417969 333.398438 C 796.417969 335.046875 796.417969 335.046875 796.417969 335.046875 C 795.617188 335.246094 794.921875 335.570313 794.320313 336.019531 C 793.722656 336.46875 793.148438 336.945313 792.597656 337.441406 C 792.046875 337.941406 791.476563 338.390625 790.875 338.789063 C 790.277344 339.191406 789.527344 339.488281 788.628906 339.6875 C 787.828125 341.089844 786.757813 342.160156 785.40625 342.910156 C 784.058594 343.660156 783.035156 344.78125 782.335938 346.28125 C 781.835938 346.382813 781.410156 346.632813 781.0625 347.03125 C 780.710938 347.429688 780.390625 347.855469 780.089844 348.304688 C 779.789063 348.753906 779.464844 349.105469 779.117188 349.351563 C 778.765625 349.601563 778.292969 349.628906 777.691406 349.425781 C 774.996094 352.625 772.199219 355.894531 769.304688 359.238281 C 766.40625 362.585938 763.835938 366.230469 761.585938 370.175781 C 759.339844 374.125 757.617188 378.417969 756.417969 383.058594 C 755.21875 387.703125 755.019531 392.875 755.820313 398.566406 C 756.917969 401.261719 758.339844 403.835938 760.089844 406.28125 C 761.835938 408.730469 763.882813 410.828125 766.230469 412.574219 C 768.578125 414.324219 771.273438 415.59375 774.320313 416.394531 C 777.367188 417.191406 780.6875 417.34375 784.285156 416.84375 C 788.078125 417.640625 791.402344 417.867188 794.246094 417.519531 C 797.09375 417.167969 800.015625 416.445313 803.011719 415.34375 C 804.210938 415.445313 805.605469 415.371094 807.207031 415.121094 C 808.800781 414.871094 810.402344 414.472656 812 413.921875 C 813.597656 413.375 815.144531 412.773438 816.644531 412.125 C 818.140625 411.476563 819.4375 410.851563 820.539063 410.25 C 821.9375 409.953125 823.3125 409.652344 824.660156 409.351563 C 826.007813 409.054688 827.230469 408.554688 828.328125 407.855469 C 830.027344 406.457031 831.875 405.257813 833.871094 404.257813 C 835.871094 403.261719 837.566406 401.863281 838.964844 400.066406 C 840.0625 399.464844 841.011719 398.542969 841.8125 397.292969 C 842.609375 396.046875 843.257813 394.648438 843.761719 393.097656 C 844.257813 391.550781 844.609375 389.953125 844.808594 388.304688 C 845.007813 386.65625 845.007813 385.132813 844.808594 383.734375 C 844.609375 382.636719 844.308594 381.539063 843.910156 380.4375 C 843.511719 379.339844 843.085938 378.265625 842.636719 377.21875 C 842.1875 376.167969 841.8125 375.097656 841.511719 373.996094 C 841.214844 372.898438 841.113281 371.75 841.214844 370.550781 C 838.816406 366.65625 836.667969 362.535156 834.773438 358.191406 Z M 813.046875 389.800781 C 810.050781 391.449219 806.457031 392.773438 802.261719 393.773438 C 800.261719 393.773438 798.089844 393.996094 795.746094 394.445313 C 793.398438 394.894531 791 395.222656 788.554688 395.421875 C 786.105469 395.621094 783.734375 395.570313 781.4375 395.269531 C 779.140625 394.972656 777.140625 394.125 775.445313 392.722656 C 775.542969 390.328125 775.992188 388.230469 776.792969 386.429688 C 777.589844 384.632813 778.539063 382.9375 779.640625 381.335938 C 780.738281 379.742188 781.863281 378.167969 783.011719 376.617188 C 784.15625 375.070313 785.132813 373.347656 785.933594 371.449219 C 786.429688 371.25 786.730469 371.175781 786.832031 371.226563 C 786.929688 371.277344 787.179688 371.203125 787.582031 371 C 789.875 368.105469 792.472656 365.558594 795.371094 363.359375 C 798.265625 361.164063 801.160156 358.917969 804.058594 356.617188 C 804.558594 357.019531 805.132813 357.34375 805.78125 357.59375 C 806.429688 357.84375 807.054688 357.992188 807.65625 358.042969 C 808.253906 358.09375 808.800781 357.941406 809.304688 357.59375 C 809.800781 357.242188 810.152344 356.667969 810.351563 355.871094 C 810.953125 356.46875 811.5 356.570313 812 356.167969 C 812.5 355.769531 812.847656 355.371094 813.046875 354.96875 C 815.046875 358.066406 816.84375 361.390625 818.441406 364.933594 C 820.039063 368.480469 821.9375 371.800781 824.136719 374.894531 C 824.136719 375.894531 824.183594 376.617188 824.285156 377.066406 C 824.382813 377.515625 824.683594 378.140625 825.183594 378.941406 C 825.082031 380.339844 824.707031 381.390625 824.058594 382.085938 C 823.410156 382.785156 822.886719 383.683594 822.488281 384.785156 C 819.191406 386.484375 816.042969 388.152344 813.046875 389.800781 Z M 888.78125 402.160156 C 891.925781 406.058594 895.546875 409.503906 899.640625 412.5 C 902.4375 413.5 904.710938 413.847656 906.457031 413.546875 C 908.203125 413.25 909.703125 412.648438 910.953125 411.75 C 912.199219 410.851563 913.371094 409.855469 914.472656 408.753906 C 915.570313 407.65625 916.820313 406.804688 918.21875 406.207031 C 918.015625 405.707031 917.941406 405.308594 917.992188 405.007813 C 918.042969 404.707031 918.144531 404.484375 918.292969 404.335938 C 918.441406 404.183594 918.566406 404.011719 918.667969 403.808594 C 918.765625 403.609375 918.765625 403.3125 918.667969 402.910156 C 919.265625 403.011719 919.617188 403.160156 919.714844 403.359375 C 919.816406 403.5625 920.066406 403.460938 920.464844 403.0625 C 921.464844 401.261719 922.414063 399.464844 923.3125 397.667969 C 924.210938 395.871094 925.457031 394.324219 927.058594 393.023438 C 927.554688 390.925781 928.257813 388.582031 929.15625 385.980469 C 930.054688 383.386719 930.902344 380.941406 931.703125 378.640625 C 931.601563 375.945313 931.703125 373.472656 932 371.226563 C 932.300781 368.976563 932.675781 366.804688 933.125 364.707031 C 933.574219 362.609375 934.023438 360.488281 934.472656 358.339844 C 934.921875 356.195313 935.296875 353.824219 935.597656 351.226563 C 936.496094 350.625 937.195313 349.902344 937.695313 349.050781 C 938.191406 348.207031 938.59375 347.28125 938.894531 346.28125 C 939.191406 345.285156 939.464844 344.285156 939.71875 343.285156 C 939.964844 342.289063 940.339844 341.386719 940.839844 340.589844 C 940.539063 338.789063 939.890625 337.09375 938.894531 335.496094 C 937.894531 333.898438 936.796875 332.25 935.597656 330.550781 C 934.097656 330.351563 932.847656 329.875 931.851563 329.128906 C 930.851563 328.378906 929.902344 327.578125 929.003906 326.730469 C 928.105469 325.882813 927.132813 325.082031 926.082031 324.332031 C 925.035156 323.585938 923.761719 323.109375 922.261719 322.910156 C 921.664063 324.109375 921.164063 325.433594 920.765625 326.878906 C 920.363281 328.328125 919.964844 329.777344 919.566406 331.226563 C 919.167969 332.671875 918.71875 334.046875 918.21875 335.34375 C 917.71875 336.644531 917.019531 337.742188 916.121094 338.640625 C 915.320313 343.535156 914.570313 348.328125 913.875 353.023438 C 913.175781 357.71875 912.152344 362.113281 910.800781 366.207031 C 909.453125 370.304688 907.707031 373.996094 905.558594 377.292969 C 903.410156 380.589844 900.539063 383.285156 896.945313 385.382813 C 896.34375 382.785156 895.996094 380.265625 895.894531 377.816406 C 895.796875 375.371094 895.769531 373.023438 895.820313 370.777344 C 895.871094 368.527344 895.945313 366.308594 896.046875 364.109375 C 896.144531 361.914063 896.046875 359.714844 895.746094 357.515625 C 896.046875 357.617188 896.269531 357.59375 896.421875 357.441406 C 896.570313 357.292969 896.695313 357.144531 896.796875 356.992188 C 896.894531 356.84375 897.019531 356.691406 897.167969 356.542969 C 897.320313 356.394531 897.542969 356.320313 897.84375 356.320313 C 897.542969 355.320313 897.492188 354.496094 897.695313 353.847656 C 897.894531 353.199219 898.144531 352.597656 898.441406 352.050781 C 898.742188 351.5 898.96875 350.875 899.117188 350.175781 C 899.265625 349.480469 899.140625 348.578125 898.742188 347.480469 C 899.242188 347.679688 899.566406 347.679688 899.714844 347.480469 C 899.867188 347.28125 900.140625 347.230469 900.539063 347.328125 C 900.242188 346.730469 900.089844 346.257813 900.089844 345.90625 C 900.089844 345.558594 900.113281 345.285156 900.164063 345.082031 C 900.214844 344.882813 900.214844 344.683594 900.164063 344.484375 C 900.113281 344.285156 899.890625 343.933594 899.492188 343.433594 C 899.691406 343.136719 899.914063 343.058594 900.164063 343.210938 C 900.414063 343.359375 900.640625 343.136719 900.839844 342.535156 C 900.441406 340.136719 899.589844 337.964844 898.292969 336.019531 C 896.992188 334.070313 895.421875 332.347656 893.574219 330.851563 C 891.726563 329.351563 889.679688 328.03125 887.429688 326.878906 C 885.183594 325.734375 882.910156 324.707031 880.613281 323.808594 C 875.421875 335.296875 869.925781 346.933594 864.136719 358.714844 C 858.34375 370.5 852.996094 381.589844 848.105469 391.972656 C 848.605469 392.675781 848.953125 393.546875 849.152344 394.597656 C 849.355469 395.644531 849.304688 396.71875 849.003906 397.816406 C 849.703125 399.21875 850.425781 400.863281 851.175781 402.761719 C 851.925781 404.660156 852.773438 406.53125 853.722656 408.378906 C 854.671875 410.226563 855.769531 411.898438 857.019531 413.398438 C 858.265625 414.894531 859.839844 415.945313 861.738281 416.542969 C 862.535156 416.445313 863.210938 416.21875 863.761719 415.871094 C 864.308594 415.519531 865.132813 415.445313 866.234375 415.644531 C 866.132813 415.046875 865.980469 414.695313 865.785156 414.597656 C 865.582031 414.5 865.632813 414.246094 865.933594 413.847656 C 867.53125 413.949219 868.628906 413.648438 869.230469 412.949219 C 869.828125 412.25 870.253906 411.402344 870.503906 410.402344 C 870.75 409.40625 870.976563 408.355469 871.175781 407.253906 C 871.375 406.15625 871.875 405.308594 872.675781 404.707031 C 872.273438 403.710938 872.175781 402.835938 872.375 402.085938 C 872.574219 401.339844 872.875 400.640625 873.273438 399.988281 C 873.671875 399.339844 874.097656 398.714844 874.546875 398.117188 C 874.996094 397.519531 875.269531 396.820313 875.371094 396.019531 C 876.070313 396.019531 876.59375 395.644531 876.945313 394.894531 C 877.292969 394.148438 877.640625 393.324219 877.992188 392.425781 C 878.34375 391.523438 878.714844 390.652344 879.117188 389.800781 C 879.515625 388.953125 880.164063 388.429688 881.0625 388.230469 C 883.0625 393.621094 885.632813 398.265625 888.78125 402.160156 Z M 1015.375 328.226563 C 1013.824219 327.082031 1012.550781 325.65625 1011.554688 323.957031 C 1011.652344 324.859375 1011.425781 325.132813 1010.878906 324.78125 C 1010.328125 324.433594 1009.851563 324.707031 1009.457031 325.605469 C 1008.65625 325.605469 1007.808594 325.15625 1006.910156 324.257813 C 1002.714844 325.058594 998.96875 325.65625 995.671875 326.054688 C 992.375 326.457031 989.203125 326.878906 986.160156 327.328125 C 983.113281 327.777344 980.015625 328.355469 976.871094 329.050781 C 973.726563 329.753906 970.152344 330.75 966.160156 332.046875 C 963.960938 332.550781 961.863281 333 959.867188 333.398438 C 957.867188 333.796875 956.019531 334.296875 954.324219 334.894531 C 952.625 335.496094 951.050781 336.269531 949.605469 337.21875 C 948.15625 338.167969 946.929688 339.390625 945.933594 340.886719 C 946.433594 342.585938 946.78125 344.257813 946.984375 345.90625 C 947.183594 347.554688 947.433594 349.152344 947.730469 350.699219 C 948.03125 352.25 948.503906 353.796875 949.15625 355.34375 C 949.804688 356.894531 950.828125 358.316406 952.226563 359.613281 C 951.527344 361.511719 950.804688 363.234375 950.054688 364.78125 C 949.304688 366.332031 948.554688 367.855469 947.808594 369.351563 C 947.058594 370.851563 946.332031 372.398438 945.632813 373.996094 C 944.933594 375.59375 944.285156 377.292969 943.6875 379.089844 C 942.988281 378.992188 942.585938 379.164063 942.488281 379.613281 C 942.386719 380.0625 942.089844 380.339844 941.589844 380.4375 C 941.890625 381.839844 941.5625 383.136719 940.617188 384.332031 C 939.664063 385.53125 939.042969 386.878906 938.742188 388.378906 C 938.445313 389.777344 938.367188 391.324219 938.519531 393.023438 C 938.667969 394.722656 938.894531 396.445313 939.191406 398.191406 C 939.492188 399.941406 939.792969 401.613281 940.089844 403.210938 C 940.390625 404.808594 940.589844 406.257813 940.691406 407.554688 C 941.789063 408.054688 942.460938 408.78125 942.714844 409.726563 C 942.960938 410.679688 943.484375 411.5 944.285156 412.199219 C 946.183594 414.097656 948.628906 415.421875 951.628906 416.167969 C 954.625 416.917969 957.769531 417.34375 961.066406 417.441406 C 964.359375 417.542969 967.605469 417.390625 970.804688 416.992188 C 974 416.59375 976.746094 416.144531 979.042969 415.644531 C 979.839844 415.644531 980.542969 415.769531 981.140625 416.019531 C 981.738281 416.269531 982.488281 416.292969 983.386719 416.09375 C 987.082031 415.398438 990.453125 414.796875 993.5 414.296875 C 996.546875 413.796875 999.316406 413.097656 1001.816406 412.199219 C 1004.308594 411.300781 1006.535156 409.976563 1008.480469 408.230469 C 1010.429688 406.484375 1012.152344 403.960938 1013.648438 400.664063 C 1013.050781 400.765625 1012.625 400.640625 1012.375 400.289063 C 1012.125 399.941406 1011.949219 399.515625 1011.851563 399.015625 C 1011.75 398.515625 1011.628906 397.992188 1011.476563 397.441406 C 1011.328125 396.894531 1011.050781 396.417969 1010.652344 396.019531 C 1009.753906 396.121094 1009.007813 395.921875 1008.40625 395.421875 C 1007.808594 394.921875 1007.230469 394.347656 1006.683594 393.699219 C 1006.132813 393.050781 1005.558594 392.347656 1004.960938 391.601563 C 1004.363281 390.851563 1003.660156 390.328125 1002.863281 390.027344 C 1000.566406 390.828125 998.042969 391.402344 995.296875 391.75 C 992.550781 392.101563 990.179688 392.824219 988.183594 393.921875 C 984.984375 393.824219 982.339844 393.898438 980.242188 394.148438 C 978.144531 394.398438 976.097656 394.648438 974.097656 394.894531 C 972.101563 395.144531 969.980469 395.320313 967.730469 395.421875 C 965.484375 395.519531 962.660156 395.320313 959.269531 394.820313 C 960.265625 392.125 961.414063 389.578125 962.714844 387.179688 C 964.011719 384.785156 965.460938 382.535156 967.058594 380.4375 C 968.257813 380.839844 969.628906 381.015625 971.179688 380.964844 C 972.726563 380.914063 974.046875 381.140625 975.148438 381.636719 C 975.945313 381.140625 977.070313 380.988281 978.519531 381.1875 C 979.964844 381.390625 981.089844 381.238281 981.890625 380.738281 C 982.289063 381.039063 982.613281 381.1875 982.863281 381.1875 C 983.113281 381.1875 983.484375 381.1875 983.988281 381.1875 C 986.382813 381.289063 988.554688 381.0625 990.503906 380.515625 C 992.453125 379.964844 994.296875 379.238281 996.046875 378.339844 C 997.792969 377.441406 999.46875 376.417969 1001.066406 375.269531 C 1002.664063 374.125 1004.261719 373 1005.859375 371.898438 C 1006.257813 370.902344 1006.382813 369.929688 1006.234375 368.976563 C 1006.085938 368.03125 1005.808594 367.15625 1005.410156 366.355469 C 1004.410156 366.457031 1003.539063 366.28125 1002.789063 365.832031 C 1002.039063 365.382813 1001.3125 364.808594 1000.617188 364.109375 C 999.917969 363.410156 999.214844 362.6875 998.519531 361.9375 C 997.820313 361.1875 997.121094 360.566406 996.421875 360.0625 C 996.320313 359.664063 996.371094 359.390625 996.570313 359.238281 C 996.769531 359.089844 996.820313 358.765625 996.722656 358.265625 C 992.625 358.367188 988.457031 358.617188 984.210938 359.015625 C 979.964844 359.414063 976.097656 359.464844 972.601563 359.164063 C 972.300781 358.566406 972.175781 357.792969 972.226563 356.84375 C 972.277344 355.894531 972.101563 354.96875 971.703125 354.070313 C 972.601563 353.773438 973.5 353.496094 974.398438 353.246094 C 975.296875 353 976.046875 352.574219 976.644531 351.972656 C 978.644531 352.175781 980.167969 352.027344 981.214844 351.523438 C 982.265625 351.027344 983.4375 351.027344 984.734375 351.523438 C 988.03125 349.527344 991.351563 348.230469 994.699219 347.628906 C 998.042969 347.03125 1001.3125 346.457031 1004.511719 345.90625 C 1007.707031 345.359375 1010.675781 344.460938 1013.425781 343.210938 C 1016.171875 341.960938 1018.59375 339.640625 1020.691406 336.242188 C 1020.492188 335.546875 1020.390625 335.023438 1020.390625 334.671875 C 1020.390625 334.320313 1020.414063 333.996094 1020.46875 333.695313 C 1020.515625 333.398438 1020.566406 333.074219 1020.617188 332.722656 C 1020.664063 332.375 1020.640625 331.851563 1020.542969 331.148438 C 1018.644531 330.351563 1016.921875 329.378906 1015.375 328.226563 Z M 1015.375 328.226563 "/>
</g>
<g clip-path="url(#clip2)" clip-rule="nonzero">
<path style=" stroke:none;fill-rule:nonzero;fill:rgb(22.744751%,22.744751%,22.744751%);fill-opacity:1;" d="M 170.933594 514.972656 C 170.933594 515.722656 171.058594 516.929688 171.308594 518.59375 C 171.558594 520.257813 171.890625 522.183594 172.304688 524.367188 C 172.722656 526.550781 173.230469 528.902344 173.835938 531.421875 C 174.4375 533.9375 175.125 536.476563 175.894531 539.035156 C 176.664063 541.597656 177.476563 544.050781 178.332031 546.402344 C 179.183594 548.753906 180.089844 550.835938 181.046875 552.644531 C 182.003906 554.453125 182.992188 555.902344 184.011719 556.984375 C 185.03125 558.066406 186.058594 558.605469 187.101563 558.605469 C 188.097656 558.605469 188.785156 558.261719 189.160156 557.574219 C 189.535156 556.890625 189.722656 556.089844 189.722656 555.171875 C 189.722656 553.714844 189.296875 552.28125 188.441406 550.867188 C 187.589844 549.453125 186.652344 548.015625 185.632813 546.558594 C 184.613281 545.101563 183.6875 543.59375 182.855469 542.03125 C 182.023438 540.472656 181.609375 538.816406 181.609375 537.070313 C 181.609375 535.757813 181.609375 535.757813 181.609375 535.757813 C 181.980469 535.757813 182.730469 535.800781 183.855469 535.882813 C 184.976563 535.96875 186.269531 536.019531 187.726563 536.039063 C 189.179688 536.0625 190.722656 536 192.34375 535.851563 C 193.96875 535.707031 195.433594 535.40625 196.746094 534.949219 C 198.054688 534.492188 199.148438 533.855469 200.023438 533.042969 C 200.894531 532.230469 201.332031 531.121094 201.332031 529.703125 C 178.984375 529.703125 178.984375 529.703125 178.984375 529.703125 C 178.984375 516.285156 178.984375 516.285156 178.984375 516.285156 C 199.585938 516.285156 199.585938 516.285156 199.585938 516.285156 C 199.585938 516.035156 199.5625 515.667969 199.523438 515.191406 C 199.480469 514.714844 199.398438 514.246094 199.273438 513.785156 C 199.148438 513.328125 198.960938 512.890625 198.710938 512.476563 C 198.460938 512.058594 198.109375 511.769531 197.648438 511.601563 C 197.316406 511.601563 196.753906 511.601563 195.964844 511.601563 C 195.171875 511.601563 194.308594 511.601563 193.375 511.601563 C 192.4375 511.601563 191.5625 511.59375 190.753906 511.570313 C 189.941406 511.550781 189.367188 511.539063 189.035156 511.539063 C 187.289063 511.539063 185.675781 511.539063 184.199219 511.539063 C 182.71875 511.539063 181.265625 511.613281 179.828125 511.757813 C 178.394531 511.902344 176.957031 512.175781 175.519531 512.570313 C 174.085938 512.964844 172.554688 513.578125 170.933594 514.410156 C 170.933594 514.972656 170.933594 514.972656 170.933594 514.972656 Z M 204.921875 535.757813 C 205.359375 537.339844 205.953125 539.109375 206.703125 541.066406 C 207.449219 543.023438 208.324219 545.027344 209.324219 547.089844 C 210.320313 549.148438 211.371094 551.03125 212.476563 552.738281 C 213.578125 554.445313 214.691406 555.847656 215.816406 556.953125 C 216.9375 558.054688 218.019531 558.605469 219.0625 558.605469 C 220.933594 558.605469 221.871094 557.730469 221.871094 555.984375 C 221.871094 555.070313 221.785156 554.183594 221.621094 553.332031 C 221.453125 552.480469 221.265625 551.644531 221.058594 550.835938 C 220.851563 550.023438 220.664063 549.191406 220.496094 548.335938 C 220.332031 547.484375 220.246094 546.640625 220.246094 545.808594 C 220.246094 544.726563 220.296875 543.53125 220.402344 542.21875 C 220.507813 540.910156 220.765625 539.660156 221.183594 538.476563 C 221.597656 537.289063 222.214844 536.289063 223.023438 535.476563 C 223.835938 534.667969 224.96875 534.261719 226.425781 534.261719 C 226.511719 534.261719 226.582031 534.273438 226.644531 534.292969 C 226.707031 534.3125 226.78125 534.324219 226.863281 534.324219 C 226.90625 534.367188 226.96875 534.386719 227.050781 534.386719 C 229.734375 537.070313 229.734375 537.070313 229.734375 537.070313 C 230.359375 537.070313 230.359375 537.070313 230.359375 537.070313 C 231.273438 537.070313 232.097656 536.882813 232.824219 536.507813 C 233.554688 536.132813 233.917969 535.488281 233.917969 534.574219 C 233.917969 533.492188 233.710938 532.535156 233.292969 531.703125 C 232.878906 530.871094 232.324219 530.152344 231.640625 529.546875 C 230.953125 528.945313 230.160156 528.488281 229.265625 528.175781 C 228.371094 527.863281 227.425781 527.707031 226.425781 527.707031 C 224.46875 527.707031 222.816406 528.207031 221.464844 529.203125 C 220.113281 530.203125 218.945313 531.441406 217.96875 532.917969 C 216.992188 534.398438 216.167969 535.988281 215.503906 537.695313 C 214.835938 539.402344 214.234375 540.980469 213.691406 542.4375 C 213.652344 542.398438 213.503906 542.023438 213.253906 541.316406 C 213.007813 540.609375 212.683594 539.765625 212.289063 538.785156 C 211.890625 537.808594 211.433594 536.738281 210.914063 535.570313 C 210.394531 534.40625 209.863281 533.335938 209.324219 532.355469 C 208.78125 531.378906 208.25 530.570313 207.730469 529.921875 C 207.210938 529.277344 206.742188 528.957031 206.328125 528.957031 C 205.828125 528.957031 205.441406 529.058594 205.171875 529.265625 C 204.902344 529.476563 204.703125 529.734375 204.578125 530.046875 C 204.453125 530.359375 204.371094 530.714844 204.328125 531.109375 C 204.289063 531.503906 204.265625 531.890625 204.265625 532.261719 C 204.265625 533.011719 204.484375 534.179688 204.921875 535.757813 Z M 236.757813 550.773438 C 237.152344 552.332031 237.765625 553.683594 238.597656 554.828125 C 239.429688 555.972656 240.535156 556.890625 241.90625 557.574219 C 243.28125 558.261719 244.964844 558.605469 246.964844 558.605469 C 249.210938 558.605469 251.457031 558.085938 253.707031 557.046875 C 255.953125 556.003906 257.972656 554.640625 259.761719 552.957031 C 261.550781 551.269531 263.007813 549.335938 264.128906 547.152344 C 265.253906 544.964844 265.816406 542.710938 265.816406 540.378906 C 265.816406 539.296875 265.617188 538.027344 265.222656 536.570313 C 264.828125 535.113281 264.253906 533.730469 263.507813 532.417969 C 262.757813 531.109375 261.832031 529.996094 260.726563 529.078125 C 259.625 528.164063 258.367188 527.707031 256.953125 527.707031 C 254.414063 527.707031 251.90625 528.164063 249.429688 529.078125 C 246.953125 529.996094 244.726563 531.253906 242.75 532.855469 C 240.773438 534.460938 239.183594 536.375 237.976563 538.597656 C 236.769531 540.828125 236.164063 543.230469 236.164063 545.808594 C 236.164063 547.558594 236.363281 549.210938 236.757813 550.773438 Z M 242.25 544.1875 C 242.769531 543.273438 243.46875 542.3125 244.34375 541.316406 C 245.214844 540.316406 246.183594 539.316406 247.246094 538.320313 C 248.304688 537.320313 249.386719 536.425781 250.492188 535.632813 C 251.59375 534.84375 252.65625 534.199219 253.675781 533.699219 C 254.695313 533.199219 255.578125 532.949219 256.328125 532.949219 C 257.160156 532.949219 257.847656 533.179688 258.386719 533.636719 C 258.929688 534.09375 259.34375 534.65625 259.636719 535.324219 C 259.925781 535.988281 260.136719 536.71875 260.261719 537.507813 C 260.386719 538.296875 260.449219 539.027344 260.449219 539.691406 C 260.449219 541.191406 260.074219 542.730469 259.324219 544.3125 C 258.574219 545.894531 257.585938 547.339844 256.359375 548.648438 C 255.128906 549.960938 253.746094 551.042969 252.207031 551.894531 C 250.667969 552.75 249.128906 553.175781 247.589844 553.175781 C 246.421875 553.175781 245.445313 553.019531 244.65625 552.707031 C 243.863281 552.394531 243.226563 551.949219 242.75 551.363281 C 242.273438 550.78125 241.9375 550.085938 241.75 549.273438 C 241.566406 548.460938 241.472656 547.515625 241.472656 546.433594 C 241.472656 545.851563 241.730469 545.101563 242.25 544.1875 Z M 267.28125 535.882813 C 267.554688 537.464844 267.9375 539.234375 268.4375 541.191406 C 268.9375 543.148438 269.550781 545.144531 270.277344 547.183594 C 271.007813 549.222656 271.816406 551.085938 272.714844 552.769531 C 273.609375 554.453125 274.597656 555.828125 275.679688 556.890625 C 276.761719 557.949219 277.882813 558.480469 279.050781 558.480469 C 279.175781 558.480469 279.371094 558.441406 279.640625 558.355469 C 279.914063 558.273438 280.183594 558.148438 280.453125 557.980469 C 280.722656 557.816406 280.984375 557.660156 281.234375 557.511719 C 281.484375 557.367188 281.648438 557.234375 281.734375 557.109375 C 281.898438 555.195313 282.078125 553.539063 282.265625 552.144531 C 282.453125 550.75 282.691406 549.253906 282.980469 547.652344 C 283.273438 546.050781 283.585938 544.550781 283.917969 543.15625 C 284.25 541.761719 284.625 540.609375 285.042969 539.691406 C 285.457031 538.777344 285.894531 538.320313 286.351563 538.320313 C 287.601563 538.320313 288.570313 538.722656 289.253906 539.535156 C 289.941406 540.347656 290.484375 541.355469 290.878906 542.5625 C 291.273438 543.769531 291.605469 545.089844 291.878906 546.527344 C 292.148438 547.964844 292.480469 549.285156 292.875 550.492188 C 293.269531 551.699219 293.78125 552.707031 294.40625 553.519531 C 295.03125 554.328125 295.925781 554.734375 297.089844 554.734375 C 297.253906 554.734375 297.589844 554.703125 298.089844 554.640625 C 298.585938 554.578125 298.921875 554.507813 299.085938 554.421875 C 299.292969 553.839844 299.574219 553 299.929688 551.894531 C 300.28125 550.792969 300.6875 549.585938 301.148438 548.273438 C 301.605469 546.964844 302.125 545.644531 302.707031 544.3125 C 303.289063 542.980469 303.914063 541.773438 304.582031 540.691406 C 305.246094 539.609375 305.964844 538.714844 306.734375 538.007813 C 307.503906 537.300781 308.324219 536.945313 309.199219 536.945313 C 309.242188 536.945313 309.28125 536.957031 309.324219 536.976563 C 309.367188 536.996094 309.429688 537.007813 309.511719 537.007813 C 309.59375 537.050781 309.699219 537.070313 309.824219 537.070313 C 309.988281 537.152344 310.238281 537.371094 310.574219 537.726563 C 310.90625 538.078125 311.070313 538.320313 311.070313 538.445313 C 315.128906 557.109375 315.128906 557.109375 315.128906 557.109375 C 315.421875 557.191406 315.648438 557.253906 315.816406 557.296875 C 316.023438 557.335938 316.210938 557.367188 316.378906 557.390625 C 316.542969 557.410156 316.667969 557.421875 316.753906 557.421875 C 317.128906 557.421875 317.53125 557.398438 317.96875 557.359375 C 318.40625 557.316406 318.8125 557.222656 319.1875 557.078125 C 319.5625 556.929688 319.875 556.714844 320.125 556.421875 C 320.375 556.128906 320.5 555.714844 320.5 555.171875 C 320.5 554.507813 320.425781 553.414063 320.28125 551.894531 C 320.132813 550.375 319.894531 548.703125 319.5625 546.871094 C 319.226563 545.039063 318.769531 543.136719 318.1875 541.160156 C 317.605469 539.183594 316.867188 537.394531 315.972656 535.789063 C 315.078125 534.1875 314.007813 532.855469 312.757813 531.796875 C 311.507813 530.734375 310.03125 530.203125 308.324219 530.203125 C 307.617188 530.203125 306.890625 530.445313 306.140625 530.921875 C 305.390625 531.402344 304.664063 532.003906 303.957031 532.730469 C 303.246094 533.460938 302.570313 534.273438 301.925781 535.167969 C 301.28125 536.0625 300.679688 536.957031 300.117188 537.851563 C 299.554688 538.746094 299.085938 539.597656 298.710938 540.410156 C 298.339844 541.222656 298.027344 541.898438 297.777344 542.4375 C 296.652344 541.566406 295.726563 540.578125 295 539.472656 C 294.269531 538.371094 293.519531 537.332031 292.75 536.351563 C 291.980469 535.375 291.074219 534.5625 290.035156 533.917969 C 288.996094 533.273438 287.601563 532.949219 285.851563 532.949219 C 284.269531 532.617188 283.035156 532.617188 282.140625 532.949219 C 281.242188 533.285156 280.566406 533.8125 280.109375 534.542969 C 279.652344 535.269531 279.351563 536.144531 279.207031 537.164063 C 279.058594 538.183594 278.902344 539.246094 278.738281 540.347656 C 278.570313 541.449219 278.320313 542.542969 277.988281 543.625 C 277.65625 544.707031 277.113281 545.644531 276.363281 546.433594 C 275.617188 545.226563 274.980469 543.875 274.460938 542.375 C 273.941406 540.878906 273.472656 539.359375 273.058594 537.820313 C 272.640625 536.28125 272.277344 534.75 271.964844 533.230469 C 271.652344 531.710938 271.351563 530.308594 271.058594 529.019531 C 270.976563 529.019531 270.757813 529.007813 270.402344 528.988281 C 270.050781 528.964844 269.8125 528.957031 269.6875 528.957031 C 268.519531 528.957031 267.761719 529.246094 267.40625 529.828125 C 267.054688 530.414063 266.875 531.222656 266.875 532.261719 C 266.875 533.097656 267.011719 534.304688 267.28125 535.882813 Z M 350.523438 527.394531 C 350.523438 527.519531 350.542969 527.625 350.585938 527.707031 C 350.667969 527.875 350.875 528.132813 351.210938 528.488281 C 351.542969 528.839844 351.792969 529.019531 351.960938 529.019531 C 364.007813 531.765625 364.007813 531.765625 364.007813 531.765625 C 365.296875 532.054688 366.234375 532.855469 366.816406 534.167969 C 367.398438 535.476563 367.824219 537.058594 368.09375 538.910156 C 368.367188 540.765625 368.5625 542.75 368.6875 544.871094 C 368.8125 546.996094 369.0625 549.003906 369.4375 550.898438 C 369.8125 552.789063 370.382813 554.421875 371.152344 555.796875 C 371.921875 557.171875 373.097656 558.066406 374.679688 558.480469 C 375.304688 558.6875 375.792969 558.71875 376.148438 558.574219 C 376.5 558.429688 376.773438 558.222656 376.960938 557.949219 C 377.148438 557.679688 377.273438 557.367188 377.335938 557.015625 C 377.394531 556.660156 377.425781 556.316406 377.425781 555.984375 C 377.425781 554.152344 377.136719 552.386719 376.554688 550.679688 C 375.96875 548.972656 375.335938 547.265625 374.648438 545.558594 C 373.964844 543.855469 373.328125 542.136719 372.746094 540.410156 C 372.164063 538.683594 371.871094 536.90625 371.871094 535.074219 C 371.871094 534.90625 371.890625 534.574219 371.933594 534.074219 C 371.976563 533.574219 371.996094 533.222656 371.996094 533.011719 C 372.371094 533.011719 372.953125 533.003906 373.746094 532.980469 C 374.535156 532.960938 375.410156 532.910156 376.367188 532.824219 C 377.324219 532.742188 378.34375 532.648438 379.425781 532.542969 C 380.507813 532.441406 381.527344 532.347656 382.484375 532.261719 C 383.441406 532.179688 384.304688 532.085938 385.074219 531.984375 C 385.84375 531.878906 386.394531 531.804688 386.730469 531.765625 C 387.851563 531.554688 388.609375 531.265625 389.007813 530.890625 C 389.402344 530.515625 389.601563 529.890625 389.601563 529.019531 C 389.601563 527.851563 389.308594 527.113281 388.726563 526.800781 C 388.144531 526.488281 387.363281 526.394531 386.386719 526.519531 C 385.40625 526.644531 384.292969 526.875 383.046875 527.207031 C 381.796875 527.539063 380.519531 527.738281 379.207031 527.800781 C 377.894531 527.863281 376.617188 527.6875 375.367188 527.269531 C 374.121094 526.855469 373.003906 525.960938 372.027344 524.585938 C 371.050781 523.210938 370.269531 521.257813 369.6875 518.71875 C 369.105469 516.179688 368.8125 512.808594 368.8125 508.605469 C 367.566406 508.605469 366.597656 508.949219 365.910156 509.636719 C 365.222656 510.320313 364.722656 511.195313 364.414063 512.257813 C 364.101563 513.316406 363.921875 514.503906 363.882813 515.816406 C 363.839844 517.125 363.871094 518.386719 363.976563 519.59375 C 364.078125 520.800781 364.195313 521.902344 364.320313 522.898438 C 364.445313 523.898438 364.507813 524.628906 364.507813 525.085938 C 351.960938 525.085938 351.960938 525.085938 351.960938 525.085938 C 351.875 525.085938 351.667969 525.25 351.335938 525.585938 C 351 525.917969 350.75 526.1875 350.585938 526.394531 C 350.542969 526.519531 350.523438 526.625 350.523438 526.707031 C 350.484375 526.792969 350.460938 526.894531 350.460938 527.019531 C 350.460938 527.1875 350.484375 527.3125 350.523438 527.394531 Z M 393.5 522.058594 C 393.3125 523.785156 393.125 525.699219 392.941406 527.800781 C 392.753906 529.902344 392.566406 532.128906 392.378906 534.480469 C 392.191406 536.832031 392.074219 539.140625 392.035156 541.410156 C 391.992188 543.675781 392.042969 545.851563 392.191406 547.933594 C 392.335938 550.011719 392.636719 551.84375 393.09375 553.425781 C 393.554688 555.007813 394.207031 556.265625 395.0625 557.203125 C 395.914063 558.136719 397.007813 558.605469 398.339844 558.605469 C 399.003906 558.605469 399.554688 558.542969 399.992188 558.417969 C 400.429688 558.292969 400.792969 557.855469 401.085938 557.109375 C 400.585938 554.484375 400.367188 552.269531 400.429688 550.460938 C 400.492188 548.648438 400.730469 547.152344 401.148438 545.964844 C 401.5625 544.78125 402.125 543.84375 402.832031 543.15625 C 403.539063 542.46875 404.269531 541.960938 405.019531 541.628906 C 405.769531 541.292969 406.507813 541.097656 407.234375 541.035156 C 407.960938 540.972656 408.578125 540.941406 409.074219 540.941406 C 410.488281 540.941406 411.605469 541.285156 412.414063 541.96875 C 413.226563 542.65625 413.859375 543.53125 414.320313 544.59375 C 414.777344 545.652344 415.058594 546.851563 415.160156 548.179688 C 415.265625 549.515625 415.308594 550.824219 415.285156 552.113281 C 415.265625 553.40625 415.214844 554.621094 415.132813 555.765625 C 415.046875 556.910156 415.007813 557.816406 415.007813 558.480469 C 416.335938 558.480469 417.347656 558.160156 418.035156 557.511719 C 418.71875 556.867188 419.199219 556.078125 419.46875 555.140625 C 419.738281 554.207031 419.886719 553.1875 419.90625 552.082031 C 419.925781 550.980469 419.9375 549.992188 419.9375 549.117188 C 419.9375 547.246094 419.699219 545.488281 419.21875 543.84375 C 418.742188 542.199219 418.023438 540.765625 417.066406 539.535156 C 416.109375 538.308594 414.890625 537.339844 413.414063 536.632813 C 411.9375 535.925781 410.179688 535.570313 408.140625 535.570313 C 406.183594 535.570313 404.550781 535.800781 403.238281 536.257813 C 401.929688 536.71875 400.855469 537.339844 400.023438 538.132813 C 399.191406 538.921875 398.558594 539.816406 398.121094 540.816406 C 397.683594 541.8125 397.371094 542.8125 397.183594 543.8125 C 396.996094 544.8125 396.914063 545.777344 396.933594 546.714844 C 396.957031 547.652344 397.007813 548.453125 397.089844 549.117188 C 396.589844 548.078125 396.371094 546.808594 396.433594 545.308594 C 396.496094 543.8125 396.664063 542.125 396.933594 540.253906 C 397.203125 538.382813 397.546875 536.332031 397.964844 534.105469 C 398.378906 531.878906 398.691406 529.570313 398.902344 527.175781 C 399.109375 524.785156 399.152344 522.316406 399.027344 519.777344 C 398.902344 517.242188 398.484375 514.683594 397.777344 512.101563 C 397.734375 512.101563 397.632813 512.082031 397.464844 512.039063 C 397.296875 511.996094 397.195313 511.976563 397.152344 511.976563 C 396.488281 511.976563 395.945313 512.195313 395.53125 512.632813 C 395.113281 513.070313 394.769531 513.597656 394.5 514.222656 C 394.230469 514.847656 394.042969 515.503906 393.9375 516.191406 C 393.835938 516.875 393.78125 517.449219 393.78125 517.90625 C 393.78125 518.945313 393.6875 520.332031 393.5 522.058594 Z M 423.589844 548.273438 C 424.359375 550.417969 425.472656 552.25 426.929688 553.769531 C 428.386719 555.289063 430.175781 556.472656 432.296875 557.328125 C 434.417969 558.179688 436.8125 558.605469 439.476563 558.605469 C 439.890625 558.605469 440.527344 558.59375 441.378906 558.574219 C 442.230469 558.554688 443.167969 558.492188 444.1875 558.386719 C 445.207031 558.285156 446.257813 558.136719 447.339844 557.949219 C 448.421875 557.761719 449.410156 557.480469 450.304688 557.109375 C 451.199219 556.734375 451.9375 556.285156 452.523438 555.765625 C 453.105469 555.246094 453.394531 554.589844 453.394531 553.800781 C 453.394531 553.34375 453.292969 552.957031 453.085938 552.644531 C 452.875 552.332031 452.605469 552.105469 452.273438 551.957031 C 451.9375 551.8125 451.585938 551.71875 451.210938 551.675781 C 450.835938 551.636719 450.460938 551.613281 450.085938 551.613281 C 449.128906 551.613281 448.226563 551.699219 447.371094 551.863281 C 446.519531 552.03125 445.675781 552.21875 444.84375 552.425781 C 444.011719 552.636719 443.179688 552.820313 442.347656 552.988281 C 441.515625 553.15625 440.621094 553.238281 439.664063 553.238281 C 438.746094 553.238281 437.707031 553.1875 436.542969 553.082031 C 435.375 552.976563 434.253906 552.738281 433.171875 552.363281 C 432.089844 551.988281 431.164063 551.4375 430.394531 550.710938 C 429.621094 549.980469 429.21875 549.015625 429.175781 547.808594 C 431.382813 548.222656 433.546875 548.046875 435.667969 547.277344 C 437.789063 546.507813 439.671875 545.363281 441.316406 543.84375 C 442.960938 542.324219 444.273438 540.566406 445.25 538.566406 C 446.226563 536.570313 446.71875 534.511719 446.71875 532.386719 C 446.71875 531.058594 446.519531 529.777344 446.125 528.550781 C 445.726563 527.324219 445.136719 526.25 444.34375 525.335938 C 443.554688 524.417969 442.574219 523.679688 441.410156 523.117188 C 440.246094 522.558594 438.894531 522.277344 437.351563 522.277344 C 434.648438 522.277344 432.347656 522.835938 430.457031 523.960938 C 428.5625 525.085938 427.023438 526.542969 425.835938 528.332031 C 424.652344 530.121094 423.785156 532.140625 423.246094 534.386719 C 422.703125 536.632813 422.433594 538.878906 422.433594 541.128906 C 422.433594 543.75 422.820313 546.132813 423.589844 548.273438 Z M 429.613281 533.730469 C 429.988281 532.628906 430.527344 531.628906 431.234375 530.734375 C 431.941406 529.839844 432.804688 529.109375 433.828125 528.550781 C 434.847656 527.988281 435.980469 527.707031 437.230469 527.707031 C 438.0625 527.707031 438.738281 527.882813 439.257813 528.238281 C 439.777344 528.589844 440.203125 529.050781 440.535156 529.609375 C 440.871094 530.171875 441.089844 530.785156 441.191406 531.453125 C 441.296875 532.117188 441.347656 532.761719 441.347656 533.386719 C 441.347656 534.511719 441.097656 535.550781 440.597656 536.507813 C 440.101563 537.464844 439.421875 538.296875 438.570313 539.003906 C 437.71875 539.714844 436.769531 540.265625 435.730469 540.660156 C 434.691406 541.054688 433.628906 541.253906 432.546875 541.253906 C 431.007813 541.253906 430.039063 540.917969 429.644531 540.253906 C 429.25 539.589844 429.050781 538.527344 429.050781 537.070313 C 429.050781 535.945313 429.238281 534.832031 429.613281 533.730469 Z M 600.183594 535.882813 C 600.453125 537.464844 600.839844 539.234375 601.339844 541.191406 C 601.835938 543.148438 602.449219 545.144531 603.179688 547.183594 C 603.90625 549.222656 604.71875 551.085938 605.613281 552.769531 C 606.507813 554.453125 607.496094 555.828125 608.578125 556.890625 C 609.660156 557.949219 610.785156 558.480469 611.949219 558.480469 C 612.074219 558.480469 612.273438 558.441406 612.542969 558.355469 C 612.8125 558.273438 613.082031 558.148438 613.355469 557.980469 C 613.625 557.816406 613.886719 557.660156 614.132813 557.511719 C 614.382813 557.367188 614.550781 557.234375 614.632813 557.109375 C 614.800781 555.195313 614.976563 553.539063 615.164063 552.144531 C 615.351563 550.75 615.589844 549.253906 615.882813 547.652344 C 616.171875 546.050781 616.484375 544.550781 616.820313 543.15625 C 617.152344 541.761719 617.527344 540.609375 617.941406 539.691406 C 618.359375 538.777344 618.792969 538.320313 619.253906 538.320313 C 620.5 538.320313 621.46875 538.722656 622.15625 539.535156 C 622.84375 540.347656 623.382813 541.355469 623.777344 542.5625 C 624.175781 543.769531 624.507813 545.089844 624.777344 546.527344 C 625.046875 547.964844 625.378906 549.285156 625.777344 550.492188 C 626.171875 551.699219 626.679688 552.707031 627.304688 553.519531 C 627.929688 554.328125 628.824219 554.734375 629.988281 554.734375 C 630.15625 554.734375 630.488281 554.703125 630.988281 554.640625 C 631.488281 554.578125 631.820313 554.507813 631.988281 554.421875 C 632.195313 553.839844 632.476563 553 632.832031 551.894531 C 633.183594 550.792969 633.589844 549.585938 634.046875 548.273438 C 634.503906 546.964844 635.023438 545.644531 635.609375 544.3125 C 636.191406 542.980469 636.816406 541.773438 637.480469 540.691406 C 638.144531 539.609375 638.863281 538.714844 639.632813 538.007813 C 640.402344 537.300781 641.226563 536.945313 642.101563 536.945313 C 642.140625 536.945313 642.183594 536.957031 642.226563 536.976563 C 642.265625 536.996094 642.328125 537.007813 642.410156 537.007813 C 642.496094 537.050781 642.597656 537.070313 642.722656 537.070313 C 642.890625 537.152344 643.140625 537.371094 643.472656 537.726563 C 643.804688 538.078125 643.972656 538.320313 643.972656 538.445313 C 648.03125 557.109375 648.03125 557.109375 648.03125 557.109375 C 648.320313 557.191406 648.550781 557.253906 648.71875 557.296875 C 648.925781 557.335938 649.113281 557.367188 649.277344 557.390625 C 649.445313 557.410156 649.570313 557.421875 649.652344 557.421875 C 650.027344 557.421875 650.433594 557.398438 650.871094 557.359375 C 651.308594 557.316406 651.714844 557.222656 652.085938 557.078125 C 652.460938 556.929688 652.773438 556.714844 653.023438 556.421875 C 653.273438 556.128906 653.398438 555.714844 653.398438 555.171875 C 653.398438 554.507813 653.324219 553.414063 653.179688 551.894531 C 653.035156 550.375 652.792969 548.703125 652.460938 546.871094 C 652.128906 545.039063 651.671875 543.136719 651.089844 541.160156 C 650.503906 539.183594 649.765625 537.394531 648.871094 535.789063 C 647.976563 534.1875 646.90625 532.855469 645.65625 531.796875 C 644.410156 530.734375 642.933594 530.203125 641.226563 530.203125 C 640.519531 530.203125 639.789063 530.445313 639.042969 530.921875 C 638.292969 531.402344 637.5625 532.003906 636.855469 532.730469 C 636.148438 533.460938 635.472656 534.273438 634.828125 535.167969 C 634.183594 536.0625 633.578125 536.957031 633.015625 537.851563 C 632.457031 538.746094 631.988281 539.597656 631.613281 540.410156 C 631.238281 541.222656 630.925781 541.898438 630.675781 542.4375 C 629.554688 541.566406 628.625 540.578125 627.898438 539.472656 C 627.171875 538.371094 626.421875 537.332031 625.652344 536.351563 C 624.882813 535.375 623.976563 534.5625 622.9375 533.917969 C 621.894531 533.273438 620.5 532.949219 618.753906 532.949219 C 617.171875 532.617188 615.933594 532.617188 615.039063 532.949219 C 614.144531 533.285156 613.46875 533.8125 613.011719 534.542969 C 612.550781 535.269531 612.25 536.144531 612.105469 537.164063 C 611.960938 538.183594 611.804688 539.246094 611.636719 540.347656 C 611.472656 541.449219 611.222656 542.542969 610.886719 543.625 C 610.554688 544.707031 610.015625 545.644531 609.265625 546.433594 C 608.515625 545.226563 607.882813 543.875 607.363281 542.375 C 606.839844 540.878906 606.371094 539.359375 605.957031 537.820313 C 605.539063 536.28125 605.175781 534.75 604.863281 533.230469 C 604.550781 531.710938 604.25 530.308594 603.960938 529.019531 C 603.875 529.019531 603.65625 529.007813 603.304688 528.988281 C 602.949219 528.964844 602.710938 528.957031 602.585938 528.957031 C 601.421875 528.957031 600.660156 529.246094 600.308594 529.828125 C 599.953125 530.414063 599.777344 531.222656 599.777344 532.261719 C 599.777344 533.097656 599.910156 534.304688 600.183594 535.882813 Z M 657.113281 548.273438 C 657.882813 550.417969 658.996094 552.25 660.453125 553.769531 C 661.910156 555.289063 663.699219 556.472656 665.820313 557.328125 C 667.941406 558.179688 670.335938 558.605469 673 558.605469 C 673.414063 558.605469 674.050781 558.59375 674.902344 558.574219 C 675.753906 558.554688 676.691406 558.492188 677.710938 558.386719 C 678.730469 558.285156 679.78125 558.136719 680.863281 557.949219 C 681.945313 557.761719 682.933594 557.480469 683.828125 557.109375 C 684.722656 556.734375 685.460938 556.285156 686.046875 555.765625 C 686.628906 555.246094 686.917969 554.589844 686.917969 553.800781 C 686.917969 553.34375 686.816406 552.957031 686.605469 552.644531 C 686.398438 552.332031 686.128906 552.105469 685.796875 551.957031 C 685.460938 551.8125 685.109375 551.71875 684.734375 551.675781 C 684.359375 551.636719 683.984375 551.613281 683.609375 551.613281 C 682.652344 551.613281 681.75 551.699219 680.894531 551.863281 C 680.042969 552.03125 679.199219 552.21875 678.367188 552.425781 C 677.535156 552.636719 676.703125 552.820313 675.871094 552.988281 C 675.039063 553.15625 674.144531 553.238281 673.1875 553.238281 C 672.269531 553.238281 671.230469 553.1875 670.066406 553.082031 C 668.898438 552.976563 667.777344 552.738281 666.695313 552.363281 C 665.613281 551.988281 664.6875 551.4375 663.917969 550.710938 C 663.144531 549.980469 662.742188 549.015625 662.699219 547.808594 C 664.90625 548.222656 667.070313 548.046875 669.191406 547.277344 C 671.3125 546.507813 673.195313 545.363281 674.839844 543.84375 C 676.484375 542.324219 677.796875 540.566406 678.773438 538.566406 C 679.75 536.570313 680.242188 534.511719 680.242188 532.386719 C 680.242188 531.058594 680.042969 529.777344 679.648438 528.550781 C 679.25 527.324219 678.65625 526.25 677.867188 525.335938 C 677.078125 524.417969 676.097656 523.679688 674.933594 523.117188 C 673.769531 522.558594 672.414063 522.277344 670.875 522.277344 C 668.171875 522.277344 665.871094 522.835938 663.980469 523.960938 C 662.085938 525.085938 660.546875 526.542969 659.359375 528.332031 C 658.175781 530.121094 657.308594 532.140625 656.769531 534.386719 C 656.226563 536.632813 655.957031 538.878906 655.957031 541.128906 C 655.957031 543.75 656.34375 546.132813 657.113281 548.273438 Z M 663.136719 533.730469 C 663.511719 532.628906 664.050781 531.628906 664.757813 530.734375 C 665.464844 529.839844 666.328125 529.109375 667.351563 528.550781 C 668.371094 527.988281 669.503906 527.707031 670.753906 527.707031 C 671.585938 527.707031 672.261719 527.882813 672.78125 528.238281 C 673.300781 528.589844 673.726563 529.050781 674.058594 529.609375 C 674.394531 530.171875 674.613281 530.785156 674.714844 531.453125 C 674.820313 532.117188 674.871094 532.761719 674.871094 533.386719 C 674.871094 534.511719 674.621094 535.550781 674.121094 536.507813 C 673.625 537.464844 672.945313 538.296875 672.09375 539.003906 C 671.242188 539.714844 670.292969 540.265625 669.253906 540.660156 C 668.214844 541.054688 667.152344 541.253906 666.070313 541.253906 C 664.53125 541.253906 663.5625 540.917969 663.167969 540.253906 C 662.773438 539.589844 662.574219 538.527344 662.574219 537.070313 C 662.574219 535.945313 662.761719 534.832031 663.136719 533.730469 Z M 691.945313 542.1875 C 692.382813 543.894531 692.871094 545.589844 693.410156 547.277344 C 693.953125 548.960938 694.542969 550.554688 695.191406 552.050781 C 695.835938 553.550781 696.5625 554.796875 697.375 555.796875 C 698.1875 556.796875 699.050781 557.453125 699.964844 557.761719 C 700.878906 558.074219 701.859375 557.855469 702.898438 557.109375 C 702.941406 556.859375 703.023438 556.140625 703.148438 554.953125 C 703.273438 553.769531 703.480469 552.375 703.773438 550.773438 C 704.0625 549.171875 704.429688 547.496094 704.867188 545.746094 C 705.304688 544 705.875 542.4375 706.582031 541.066406 C 707.289063 539.691406 708.101563 538.597656 709.015625 537.789063 C 709.933594 536.976563 711.015625 536.738281 712.261719 537.070313 C 712.304688 537.070313 712.449219 537.175781 712.699219 537.382813 C 712.949219 537.589844 713.21875 537.839844 713.511719 538.132813 C 713.800781 538.421875 714.082031 538.714844 714.355469 539.003906 C 714.625 539.296875 714.84375 539.527344 715.011719 539.691406 C 715.382813 540.234375 715.71875 540.890625 716.007813 541.65625 C 716.300781 542.429688 716.570313 543.261719 716.820313 544.15625 C 717.070313 545.050781 717.296875 546.007813 717.507813 547.027344 C 717.714844 548.046875 717.882813 549.015625 718.007813 549.929688 C 718.378906 552.21875 718.691406 554.609375 718.941406 557.109375 C 723.5 557.109375 723.5 557.109375 723.5 557.109375 C 723.5 555.859375 723.46875 554.351563 723.40625 552.582031 C 723.34375 550.8125 723.175781 548.984375 722.90625 547.089844 C 722.636719 545.195313 722.25 543.332031 721.75 541.503906 C 721.253906 539.671875 720.535156 538.039063 719.597656 536.601563 C 718.660156 535.167969 717.484375 534 716.070313 533.105469 C 714.65625 532.210938 712.949219 531.765625 710.953125 531.765625 C 709.578125 531.765625 709.578125 531.765625 709.578125 531.765625 C 708.371094 532.015625 707.15625 532.503906 705.925781 533.230469 C 704.699219 533.960938 703.574219 534.855469 702.554688 535.914063 C 701.535156 536.976563 700.683594 538.183594 699.996094 539.535156 C 699.308594 540.890625 698.945313 542.292969 698.90625 543.75 C 698.238281 543.292969 697.675781 542.679688 697.21875 541.90625 C 696.761719 541.136719 696.367188 540.296875 696.03125 539.378906 C 695.699219 538.464844 695.449219 537.570313 695.285156 536.695313 C 695.117188 535.820313 694.972656 535.050781 694.847656 534.386719 C 694.222656 534.386719 694.222656 534.386719 694.222656 534.386719 C 693.015625 534.386719 692.140625 534.625 691.601563 535.105469 C 691.058594 535.582031 690.789063 536.363281 690.789063 537.445313 C 691.121094 538.902344 691.507813 540.484375 691.945313 542.1875 Z M 727.152344 537.601563 C 727.296875 539.371094 727.546875 541.191406 727.898438 543.0625 C 728.253906 544.933594 728.761719 546.808594 729.429688 548.679688 C 730.09375 550.554688 730.917969 552.230469 731.894531 553.707031 C 732.871094 555.183594 734.070313 556.371094 735.484375 557.265625 C 736.898438 558.160156 738.542969 558.605469 740.414063 558.605469 C 742.203125 558.605469 743.816406 558.167969 745.253906 557.296875 C 746.6875 556.421875 747.957031 555.265625 749.0625 553.832031 C 750.164063 552.394531 751.101563 550.761719 751.871094 548.929688 C 752.640625 547.101563 753.285156 545.238281 753.804688 543.34375 C 754.324219 541.449219 754.6875 539.609375 754.898438 537.820313 C 755.105469 536.03125 755.210938 534.429688 755.210938 533.011719 C 755.210938 532.472656 755.230469 531.753906 755.273438 530.859375 C 755.3125 529.964844 755.335938 529.019531 755.335938 528.019531 C 755.335938 527.019531 755.28125 526.011719 755.179688 524.992188 C 755.074219 523.972656 754.867188 523.066406 754.554688 522.277344 C 754.242188 521.484375 753.816406 520.832031 753.273438 520.308594 C 752.734375 519.789063 752.027344 519.53125 751.152344 519.53125 C 750.445313 519.53125 749.808594 519.695313 749.25 520.027344 C 748.6875 520.363281 748.40625 520.925781 748.40625 521.714844 C 748.40625 522.589844 748.476563 523.453125 748.625 524.304688 C 748.769531 525.15625 748.945313 526.019531 749.15625 526.894531 C 749.363281 527.769531 749.539063 528.652344 749.6875 529.546875 C 749.832031 530.445313 749.902344 531.390625 749.902344 532.386719 C 749.902344 533.386719 749.839844 534.554688 749.71875 535.882813 C 749.59375 537.214844 749.382813 538.597656 749.09375 540.035156 C 748.800781 541.472656 748.414063 542.898438 747.9375 544.3125 C 747.457031 545.726563 746.84375 546.996094 746.097656 548.117188 C 745.347656 549.242188 744.460938 550.160156 743.441406 550.867188 C 742.421875 551.574219 741.246094 551.925781 739.917969 551.925781 C 738.832031 551.925781 737.886719 551.59375 737.078125 550.929688 C 736.265625 550.261719 735.527344 549.421875 734.859375 548.398438 C 734.195313 547.378906 733.621094 546.226563 733.144531 544.933594 C 732.664063 543.644531 732.269531 542.355469 731.957031 541.066406 C 731.644531 539.777344 731.40625 538.535156 731.238281 537.351563 C 731.074219 536.164063 730.988281 535.175781 730.988281 534.386719 C 730.988281 534.179688 731.0625 533.691406 731.207031 532.917969 C 731.355469 532.148438 731.511719 531.308594 731.675781 530.390625 C 731.84375 529.476563 731.988281 528.632813 732.113281 527.863281 C 732.238281 527.09375 732.320313 526.605469 732.363281 526.394531 C 732.363281 525.585938 732.363281 525.585938 732.363281 525.585938 C 732.363281 525.085938 732.363281 525.085938 732.363281 525.085938 C 731.820313 524.378906 731.292969 523.960938 730.773438 523.835938 C 730.25 523.710938 729.773438 523.742188 729.335938 523.929688 C 728.898438 524.117188 728.480469 524.449219 728.085938 524.929688 C 727.691406 525.40625 727.347656 525.898438 727.058594 526.394531 C 727.058594 526.644531 727.046875 527.074219 727.027344 527.675781 C 727.003906 528.28125 726.996094 528.933594 726.996094 529.640625 C 726.996094 530.351563 726.984375 531.027344 726.964844 531.671875 C 726.941406 532.316406 726.933594 532.761719 726.933594 533.011719 C 726.933594 534.304688 727.003906 535.832031 727.152344 537.601563 Z M 727.152344 537.601563 "/>
</g>
<g clip-path="url(#clip3)" clip-rule="nonzero">
<path style=" stroke:none;fill-rule:nonzero;fill:rgb(22.3526%,22.3526%,22.3526%);fill-opacity:1;" d="M 511.671875 565.765625 C 510.882813 549.085938 510.617188 532.40625 509.886719 515.726563 C 509.714844 512.21875 512.957031 509.285156 516.328125 509.285156 C 525.683594 509.945313 522.242188 521.777344 522.898438 528.109375 C 522.992188 540.90625 521.9375 553.652344 520.773438 566.386719 C 520.03125 571.902344 511.738281 571.347656 511.671875 565.765625 Z M 511.671875 565.765625 "/>
</g>
<path style=" stroke:none;fill-rule:nonzero;fill:rgb(22.3526%,22.3526%,22.3526%);fill-opacity:1;" d="M 490.195313 544.8125 C 487.277344 544.925781 485.230469 541.15625 487.679688 539.164063 C 488.484375 538.222656 489.757813 537.816406 490.910156 538.132813 C 494.378906 537.441406 497.882813 537 501.34375 536.296875 C 517.902344 533.03125 533.417969 528.34375 550.121094 526.359375 C 552.769531 525.972656 555.367188 527.71875 556.066406 530.28125 C 556.839844 533.089844 555.140625 536.171875 552.292969 536.921875 C 547.199219 538.269531 542.09375 539.65625 536.9375 540.691406 C 522.171875 543.902344 507.046875 544.976563 491.96875 544.34375 C 491.46875 544.667969 490.835938 544.851563 490.195313 544.8125 Z M 490.195313 544.8125 "/>
<path style=" stroke:none;fill-rule:nonzero;fill:rgb(22.3526%,22.3526%,22.3526%);fill-opacity:1;" d="M 1478.265625 280.625 C 1473.574219 224.734375 1476.003906 167.839844 1466.527344 112.421875 C 1431.40625 159.539063 1393.492188 204.945313 1354.269531 249.738281 C 1352.945313 253.535156 1345.460938 252.113281 1346.769531 248.167969 C 1350.914063 241.453125 1357.28125 235.589844 1362.269531 229.207031 C 1397.394531 188.710938 1428.847656 146.148438 1464 105.71875 C 1465.421875 104.320313 1468.257813 104.207031 1469.660156 105.71875 C 1475.800781 110.925781 1475.832031 118.339844 1476.941406 125.042969 C 1479.605469 142.359375 1481.382813 159.640625 1482.753906 176.992188 C 1485.453125 211.5 1487.261719 246.042969 1486.777344 280.625 C 1486.722656 282.828125 1484.59375 283.960938 1482.480469 283.960938 C 1480.402344 283.960938 1478.335938 282.867188 1478.265625 280.625 Z M 1478.265625 280.625 "/>
<g clip-path="url(#clip4)" clip-rule="nonzero">
<path style=" stroke:none;fill-rule:nonzero;fill:rgb(22.3526%,22.3526%,22.3526%);fill-opacity:1;" d="M 1110.375 514.460938 C 1109.90625 513.050781 1110.96875 511.652344 1112.667969 511.242188 C 1128.304688 507.410156 1144.765625 502.6875 1160.027344 498.445313 C 1191.828125 490.042969 1222.367188 478.980469 1249.929688 463.9375 C 1335.203125 417.445313 1400.117188 345.570313 1420.617188 264.308594 C 1424.980469 247.242188 1427.414063 229.828125 1427.257813 212.398438 C 1427.273438 207.054688 1427.351563 201.710938 1427.195313 196.367188 C 1427.164063 195.707031 1427.898438 195.15625 1428.691406 195.15625 C 1429.535156 195.15625 1430.203125 195.707031 1430.203125 196.367188 C 1431.03125 219.878906 1430.453125 243.484375 1424.390625 266.59375 C 1398.949219 372.6875 1296.167969 473.710938 1165.453125 505.296875 C 1148.585938 509.382813 1131.59375 513.164063 1114.398438 516.285156 C 1114.128906 516.335938 1113.859375 516.363281 1113.585938 516.363281 C 1112.160156 516.363281 1110.78125 515.660156 1110.375 514.460938 Z M 1110.375 514.460938 "/>
</g>
</g>
</svg>
