<svg xmlns="http://www.w3.org/2000/svg" xmlns:xlink="http://www.w3.org/1999/xlink" version="1.1" width="700pt" height="700pt" viewBox="0 0 2100 2100">
<defs>
<clipPath id="clip_0">
<path d="M464.184 212.712H1874.7V1893.12H464.184Z"/>
</clipPath>
</defs>
<g clip-path="url(#clip_0)">
<path transform="matrix(1,0,0,1,883.5288,645.356)" d="M0 0C-1.7354-4.1095 .1528-9.7477 4.5862-11.2943 30.2141-20.1967 55.8152-29.225 81.3442-38.442L80.427-37.4529 77.8823-34.0627 75.3374-30.0522 72.7297-25.3762 69.978-20.0078 67.3433-14.7743C44.521-5.8 18.9558 3.7678 6.9331 3.7678 2.8147 3.7678 .2878 2.6527 0 0Z"/>
<path transform="matrix(1,0,0,1,966.2668,606.4104)" d="M0 0C7.8862-2.8506 15.7637-5.7102 23.6318-8.5967-71.8213 11.9507-204.7185-28.8024-191.2839-147.2667-175.8711-232.8014-96.1096-289.2371-23.0293-325.7278 58.9805-363.873 162.3379-388.1073 246.2271-343.0829 343.9912-284.2463 299.3445-160.8901 227.0645-100.6417 216.1118-81.623 192.2913-72.0013 174.4504-60.0145 128.5898-29.9624 77.6934-9.1721 26.1497 8.9023 21.2219 9.7206 9.397 14.3606-4.7388 19.9629L0 0ZM-15.9792-300.918C-77.6934-268.1141-142.366-222.2445-161.5823-151.7449-178.6138-66.7318-85.5974-25.7269-14.064-35.0341 37.7498-38.8827 88.3313-54.0616 134.8484-76.9921 152.3833-85.7505 169.2888-95.7769 184.9084-107.6558 195.3306-115.3531 207.1465-129.9297 220.7068-119.4446 281.1531-172.1035 318.7588-283.1493 229.4744-327.3823 202.6863-339.1173 174.4863-344.0541 146.0349-344.0541 90.1118-344.0541 33.1997-324.9813-15.9792-300.918Z"/>
<path transform="matrix(1,0,0,1,1575.4226,671.1548)" d="M0 0C-6.3215-6.3125-9.2532-14.4326-9.6218-23.236-12.1306-82.5402-14.6934-141.8444-17.0044-201.1665-19.8369-274.1478-22.2019-347.1293-24.5579-420.1198-25.2144-440.8649-6.7441-458.193 13.5154-458.193 34.5303-458.193 51.2561-440.8649 51.5977-420.1198 52.5508-363.2164 53.4141-306.3132 54.2144-249.41 55.3025-174.0277 55.7612-98.6364 56.0938-23.236 56.6333-3.9205 39.3682 9.5049 22.175 9.5049 14.1628 9.5049 6.1687 6.5914 0 0Z"/>
<path transform="matrix(1,0,0,1,495.7723,1636.0905)" d="M0 0C-.3687-11.0696 6.8611-20.2866 6.8341-31.4641 8.7495-47.875 9.5139-64.3848 10.5659-80.8677 11.3752-101.8108 11.9058-122.7537 12.1127-143.7148 14.046-158.3542 6.4924-190.0701 23.4159-196.2656 36.2389-193.1455 34.1708-168.8752 38.9187-158.3992 49.9882-118.0867 62.4965-75.7151 85.5707-40.6631 99.2119-40.1865 94.1763-91.8472 95.0575-103.0696 94.1133-123.4102 92.1799-143.6428 89.7521-163.8486 88.673-178.416 81.3893-197.3359 93.7356-208.855 112.4396-220.6528 112.3856-133.7603 114.8315-122.2952 123.5092 19.8188 79.321 54.6101 31.9226-100.3 29.4497-80.0315 32.7679 21.6533 8.9023 21.7522 1.097 18.0835 .5486 7.5625 0 0Z"/>
<path transform="matrix(1,0,0,1,685.3479,1632.1608)" d="M0 0C-57.6047-20.4304-39.9438-126.5305-3.9658-161.2048 6.2495-171.5549 20.8889-183.7305 36.113-176.5815 74.4829-157.6619 72.9094-82.9539 61.2463-47.686 55.6172-30.9604 43.1899-16.4468 26.8059-9.5767 20.907-3.9297 12.8408 .4316 4.469 .4316 2.9854 .4316 1.4927 .2969 0 0ZM10.7817-129.345C-11.4293-110.4973-33.4604-57.083 1.5466-41.3464 33.2625-47.0925 31.9585-80.8767 45.5728-75.7959 51.2739-94.2031 47.0835-137.1863 27.2556-137.1953 22.6335-137.1953 17.1663-134.8665 10.7817-129.345Z"/>
<path transform="matrix(1,0,0,1,893.897,1635.4699)" d="M0 0C-9.8826-25.8706-3.9026-55.959-6.0339-83.3135-3.489-102.4939-16.2222-173.1375 .3867-178.7307 19.8909-182.7231 11.9417-107.188 14.5496-92.9802 14.8462-73.2871 14.8103-53.585 15.5027-33.9099 15.6646-24.1262 18.0835-13.929 14.4866-4.4871 13.4524-.0359 9.5588 3.8308 5.7102 3.8308 3.6418 3.8308 1.5916 2.7249 0 0Z"/>
<path transform="matrix(1,0,0,1,974.4319,1643.4281)" d="M0 0C-7.2117-18.7759 .8813-39.7908 .5754-59.385 1.0972-74.6899 1.6995-89.9768 1.8704-105.2908 2.7966-127.0339 .8093-148.8674 2.8596-170.5117 4.4243-185.7627 17.616-191.0232 21.8872-173.4883 30.8884-147.2039 43.3967-85.031 63.5396-68.863 74.0334-95.0486 72.6128-125.3525 71.3987-153.1746 69.6003-168.1289 61.3096-185.6367 72.2981-198.9275 95.741-213.5847 93.2681-121.9443 92.3149-109.2473 88.2773-19.981 55.0417 10.2332 22.4448-92.1169 20.8892-82.918 23.7036 5.98 7.9761 5.9888 5.7192 5.9888 3.0845 4.1545 0 0Z"/>
<path transform="matrix(1,0,0,1,1144.2334,1616.4513)" d="M0 0C-25.8079-20.8081-40.6812-103.4744-49.2959-138.1936-52.1733-150.6028-39.8899-175.4756-30.7268-153.7861-19.6033-116.4231-15.0713-74.3394 5.0447-40.8159 19.4861-59.3223 17.8047-109.5171 20.5923-134.1829 20.6643-146.9431 14.8643-163.2461 26.1135-172.9758 54.7271-180.9519 34.9978-61.6333 32.1294-45.438 28.937-27.8491 24.7737-8.2998 8.0481 1.2588 7.1399 2.0232 6.1326 2.3289 5.1165 2.3289 3.2732 2.3289 1.3848 1.2949 0 0Z"/>
<path transform="matrix(1,0,0,1,1234.5608,1611.7394)" d="M0 0C-6.9331-25.0977-1.5195-52.677-3.8396-78.6106-1.7444-99.6167-13.884-124.804-3.8936-143.1934 5.1167-155.252 13.3625-136.584 13.3176-128.0952 18.1106-90.5254 17.1753-52.4612 17.688-14.6484 18.7131-7.158 13.5066 6.0967 7.1309 6.0967 4.8289 6.0967 2.365 4.3611 0 0Z"/>
<path transform="matrix(1,0,0,1,1336.6953,1608.9337)" d="M0 0C-8.5156-37.5879-1.3308-77.999-9.4868-116.0366-19.8369-114.4448-23.3711-126.9531-22.3818-139.4524-21.042-156.385-11.3843-173.3264 .8901-155.207 14.2078-132.2136 13.3264-104.1038 15.179-78.3408 14.4685-52.542 21.8333-24.9355 14.6484 0 13.1108 3.8577 10.1882 5.8269 7.2747 5.8269 4.3972 5.8269 1.5286 3.9116 0 0Z"/>
<path transform="matrix(1,0,0,1,1271.4382,1473.1952)" d="M0 0C-14.2168-3.1294-14.0999-38.532 0-41.4275 40.5193-38.8557 80.9036-46.4543 121.0542-50.9324 134.1199-47.0117 132.915-25.8618 128.3828-15.5566 123.8599-4.7122 89.6082-7.3557 77.8103-4.1814 57.5417-2.0054 37.1472 .6653 16.7346 .6653 11.1594 .6653 5.5752 .4675 0 0Z"/>
<path transform="matrix(1,0,0,1,1434.6213,1624.9039)" d="M0 0C-45.0154-23.5146-4.9548-143.6157 14.4685-178.416 23.3799-194.7908 33.5411-174.0637 32.1565-163.7676 32.5969-150.4319 23.29-139.686 18.7759-127.7085 8.3447-100.9744 1.3218-72.3159 .5396-43.5586 20.1338-30.6458 47.4343-49.8801 63.054-62.7212 69.4204-69.2766 76.0298-60.1045 77.019-53.8367 88.0793-24.1621 41.5264 1.8345 11.9148 1.8345 7.4814 1.8345 3.426 1.25 0 0Z"/>
<path transform="matrix(1,0,0,1,1437.7957,1545.7899)" d="M0 0C-13.6594-28.7305 4.55-42.4077 30.6458-49.5925 40.645-51.2112 78.3228-69.2498 82.2615-58.8997 88.3672-48.3787 89.3203-28.7305 77.8191-21.7253 69.6902-19.5134 61.5972-17.1575 53.4951-14.8103 39.6829-10.593 25.2144-6.8792 12.625 .3596 11.2402 2.9404 8.8662 4.1814 6.4834 4.1814 3.9294 4.1814 1.3577 2.7515 0 0Z"/>
<path transform="matrix(1,0,0,1,1454.1795,1471.2706)" d="M0 0C-15.8804-30.5288 7.8413-46.373 34.5394-54.4302 48.4055-59.304 62.6494-63.1707 76.7402-67.3252 80.0405-68.2964 82.7471-66.1741 84.5366-63.6023 90.6514-53.0723 91.5955-33.4871 80.1035-26.4282 59.9158-20.4844 39.2515-15.2329 20.1697-6.2495 14.5405-4.532 10.5391 4.0198 5.6831 4.0198 3.9297 4.0198 2.0774 2.9226 0 0Z"/>
<path transform="matrix(1,0,0,1,722.8457,1889.6459)" d="M0 0C-9.3162-38.4238-5.3054-82.3242-8.9834-119.4805-8.3359-136.7905-13.5964-153.2466-7.9133-169.2976 10.0623-191.9583 7.1758-132.5283 8.093-124.2283 9.8105-88.394 11.7439-52.5688 13.6323-16.7346 14.8372-10.7097 11.51 3.2192 5.3594 3.2283 3.7498 3.2283 1.9512 2.2751 0 0Z"/>
<path transform="matrix(1,0,0,1,784.1731,1878.7653)" d="M0 0C-7.4636-17.6877-2.9944-38.7478-4.9368-57.6406-5.2695-72.7295-5.7371-87.8005-6.2676-102.8628-4.73-121.0542-17.9575-149.2271-4.8469-163.21 13.0388-171.312 9.9185-93.7715 11.7258-82.3423 12.4004-62.856 12.6072-43.3608 13.2996-23.8655 14.5854-17.2651 13.4973 3.1833 5.8718 3.1833 4.2263 3.1833 2.2839 2.2393 0 0Z"/>
<path transform="matrix(1,0,0,1,706.3357,1829.5504)" d="M0 0C-5.0986-8.7854-5.8718-25.0793 3.696-30.9783 28.4697-39.1973 54.0886-44.2151 79.9236-47.749 87.1895-46.7148 88.3494-36.4636 88.5471-30.4836 88.9609-12.3374 79.5999-12.8948 64.9783-10.9255 45.0515-8.21 25.718-2.6975 6.4924 3.1025 6.0339 3.2463 5.5842 3.3093 5.1526 3.3093 3.0664 3.3093 1.2051 1.7896 0 0Z"/>
<path transform="matrix(1,0,0,1,870.436,1872.4169)" d="M0 0C-65.8774-14.8464-7.8142-106.136 7.5176-142.8425 9.9636-149.2722 17.2383-149.344 19.7292-142.8425 27.4624-127.5828 16.5818-112.2419 10.2063-98.6726 1.2949-79.7258-8.1289-60.5811-12.8408-40.0786 7.2029-27.7502 34.3777-34.4675 55.1318-42.156 62.2808-43.5857 64.5828-33.2805 65.0503-27.9211 65.5898-21.3838 64.6907-11.3213 57.9373-8.0842 44.0623-2.2932 28.9014 .917 13.7852 .917 9.1721 .917 4.5591 .6204 0 0Z"/>
<path transform="matrix(1,0,0,1,869.7256,1818.0585)" d="M0 0C-5.1255-8.8306-5.8538-24.9536 3.696-30.9695 22.4268-38.613 41.7964-44.7007 61.8669-47.6233 75.1755-48.1179 74.771-17.7148 64.6636-13.5425 51.2202-11.4114 37.8577-8.354 25.0166-3.8757 19.3965-3.1025 11.708 2.9944 5.7102 2.9944 3.5161 2.9944 1.5557 2.1851 0 0Z"/>
<path transform="matrix(1,0,0,1,876.5149,1746.9115)" d="M0 0C-5.1345-8.8306-5.845-24.9536 3.6958-30.9695 27.2825-38.9907 52.3801-41.1489 76.9021-44.9885 88.6189-42.7224 88.8169-12.895 76.9021-10.4583 53.3242-6.7444 29.1619-4.676 6.5015 3.1113 6.0337 3.3 5.5752 3.3811 5.1167 3.3811 3.0483 3.3811 1.115 1.6365 0 0Z"/>
<path transform="matrix(1,0,0,1,989.2153,1866.392)" d="M0 0C-15.5027-11.9419-1.9785-42.5964-1.6548-59.5559 2.9133-86.3979 7.8142-152.4553 37.219-162.6526 74.4021-163.6057 72.145-81.9197 30.1602-78.3767 47.3804-58.8096 69.7351-44.3411 93.7805-34.5483 103.3572-28.5505 102.575-12.4185 97.4854-3.5789 91.1187 4.8469 80.0852-6.8433 72.6846-9.0642 50.6265-20.1157 30.8794-36.0862 15.7004-55.5544 11.7529-45.0244 13.875 .072 .9172 .0808 .6204 .0808 .3147 .054 0 0ZM27.6692-112.5295C34.6563-114.22 42.6055-116.9717 46.0854-123.7878 44.3948-127.187 42.4436-128.5269 40.4382-128.5269 34.8721-128.5269 28.9551-118.1047 27.6692-112.5295Z"/>
<path transform="matrix(1,0,0,1,1141.8953,1856.4555)" d="M0 0C-55.2844-6.915-45.5188-65.23-24.6567-101.2261-20.7991-109.3643-16.312-117.2324-12.9219-125.5862-10.1792-138.0767-.1438-137.6089 2.374-125.6672 7.104-96.9998-19.4773-74.3213-24.3152-46.9756-9.8645-30.9873 9.1902-33.2805 23.2183-35.5645 32.6331-37.1023 39.782-38.6399 41.7512-34.6382 46.8499-25.8438 47.6233-9.5767 38.0464-3.6689 28.8833-1.2859 19.2795 .8003 9.7388 .8003 6.4746 .8003 3.2192 .5576 0 0Z"/>
<path transform="matrix(1,0,0,1,1118.947,1791.0275)" d="M0 0C-3.8218-8.6685-4.7749-25.9607 6.0967-29.4766 26.5002-32.0034 46.5352-37.1201 66.8667-40.2944 80.1753-40.7888 79.7705-10.377 69.6543-6.2136 55.2217-3.7588 40.843-1.0251 26.4734 1.7896 21.3835 2.0503 14.3606 5.1167 8.5967 5.1167 4.9636 5.1167 1.8345 3.9028 0 0Z"/>
<path transform="matrix(1,0,0,1,1130.2324,1745.4638)" d="M0 0C-6.6995-2.0054-7.7783-11.4653-7.9133-17.2654-10.2783-45.9688 33.667-46.3103 53.8367-51.427 66.4978-53.2615 79.168-54.9431 91.8831-56.3728 99.1758-55.3027 100.3179-45.1145 100.5156-39.0986 100.3628-32.9028 99.1758-23.2991 91.8831-21.8335 63.4314-18.3533 34.3774-15.6287 7.5713-4.811 6.2766-1.9873 4.1543 .1797 1.3938 .1797 .9441 .1797 .4766 .1167 0 0Z"/>
<path transform="matrix(1,0,0,1,1399.3626,509.1228)" d="M0 0C-15.5476-1.1331-14.5854-30.4839-2.4189-36.203 36.9224-45.2852 77.0189-51.8585 116.8728-58.7646 204.2148-73.8806 291.584-86.326 378.8992-101.3522 407.1528-106.1541 435.2627-111.6932 463.2827-117.7361 475.0896-117.754 474.3523-98.4746 471.6455-90.4894 470.9351-77.9542 394.7524-71.6237 380.113-66.9926 305.8374-54.2598 231.0276-43.0183 156.697-30.9697 156.7097-30.9725 156.7224-30.9751 156.7356-30.9785 107.2151-22.9124 57.7935-14.1628 8.6597-4.1095 7.2388-1.124 4.541 .1079 1.5557 .1079 1.0432 .1079 .5215 .0719 0 0Z"/>
<path transform="matrix(1,0,0,1,1556.0596,478.1531)" d="M0 0C-.0564 .0122-.1096 .0199-.1682 .0272-.1138 .0184-.0542 .0088 0 0Z"/>
<path transform="matrix(1,0,0,1,510.3849,1268.1259)" d="M0 0-.8813-.3057-1.7715-.5574-2.6978-.7822-3.642-.9712-4.6041-1.115-5.5933-1.241-6.6273-1.3489-7.6885-1.4297-8.7946-1.5017-9.9365-1.5645-11.1235-1.6096-12.3734-1.6545-13.6683-1.6904-15.0352-1.7175-16.4559-1.7354-17.9218-1.7534-19.3965-1.7625H-20.9071-22.4358L-23.9465-1.7715H-25.5022L-27.0579-1.7803-28.6135-1.7983-29.0812-1.8074C-30.6727-3.6687-31.6979-6.2676-31.9946-9.8196-29.8634-25.1155-12.3195-25.0615 3.4979-24.9985 10.4041-24.9805 16.9774-24.9536 21.7972-26.2034 60.4281-28.6763 99.1219-29.8364 137.7977-31.2571 340.0704-43.9631 542.9813-37.6326 745.182-50.9323 849.3126-56.9211 951.7347-69.7532 1056.0275-66.6958 1065.2536-66.7227 1070.0463-59.4209 1070.1454-52.1191 1070.2443-44.7996 1065.6312-37.4797 1056.0275-37.5337 1021.9467-36.1938 987.8929-34.3145 953.8661-32.1115L946.5463-32.2372 937.653-32.4261 928.6066-32.6329 919.5424-32.8486 910.5861-33.0557 901.7108-33.2177 893.2489-33.2983 884.6613-33.2892 875.7321-33.2084 866.7128-33.0286 857.7203-32.7588 848.7191-32.4351 839.9786-32.0396 831.0314-31.5807 822.111-31.0413 813.3165-30.4387 804.1534-29.7554 794.9093-29.0181 785.8451-28.2446 776.4481-27.4175 766.8802-26.5542 757.1327-25.6638 746.7736-24.7107 736.1986-23.7395 725.6058-22.7683 714.4464-21.7253 703.1879-20.6643 692.2714-19.6121 681.067-18.488 669.7726-17.3191 658.757-16.123 647.3639-14.8552 636.0426-13.5693 625.1708-12.3193 614.0114-11.0425 606.9884-10.269C457.5905-6.4023 307.9679-10.5029 158.561-4.7478 112.4126-3.4529 66.2372-4.5859 20.1337-1.9063 14.8641-2.7876 7.5984-1.3757 .1528 .063L0 0Z"/>
<path transform="matrix(1,0,0,1,512.0934,1268.8544)" d="M0 0-.8363-.3777-1.7085-.7285-2.5898-1.0342-3.48-1.2859-4.4062-1.5107-5.3505-1.6997-6.3126-1.8435-7.3018-1.9695-8.3358-2.0774-9.397-2.1582-10.5031-2.2302-11.645-2.293-12.832-2.3381-14.0819-2.3831-15.3768-2.4189-16.7437-2.446-18.1644-2.4639-19.6302-2.4819-20.952-2.491C-22.6606-4.5952-23.9285-7.3557-24.531-10.8447-36.8414-88.1875-29.252-166.708-33.748-244.5813-35.1509-256.7119-39.8898-274.6335-22.9663-277.3132 3.2551-277.8887-8.3988-242.4861-4.5681-225.8325-1.2949-156.8884 3.8127-88.0347 7.3107-19.1267 9.9094-10.2871 6.0338-3.4622 .1798 .0898L0 0Z"/>
<path transform="matrix(1,0,0,1,1554.9922,1228.4971)" d="M0 0C-4.7122-84.15 5.0986-169.1451-5.0178-252.9083-8.8845-278.2396 32.2913-281.2609 32.0574-255.4352 31.7246-170.3141 35.0518-85.0941 31.5449 0 31.5359 2.2928 31.1311 4.3341 30.4119 6.1146L29.4766 6.1416 21.0059 6.3573 12.7959 6.5553 4.4241 6.7531 1.4297 6.8252C.5305 4.8828 .0088 2.6075 0 0Z"/>
<path transform="matrix(1,0,0,1,467.7614,1012.2863)" d="M0 0C-2.293-1.3398-3.3271-4.613-1.8164-6.9241 4.4872-16.5996 11.3573-25.9788 18.4072-35.1147 40.0067-63.3596 64.6545-89.2483 91.4426-112.6194 121.0632-137.573 152.5093-160.7012 186.635-179.1533 226.7946-199.8625 269.9215-213.9535 312.9857-227.2891 342.0038-236.0656 371.8671-241.7487 401.8295-246.2089 443.0231-252.7732 484.5856-256.5859 526.2916-257.674 610.1449-261.5767 694.007-252.8002 776.4843-237.918 881.8739-218.6475 999.4301-174.9269 1075.5319-97.2605 1087.4196-83.7991 1098.8847-67.7388 1100.1705-49.3047 1100.3864-43.2078 1098.7409-31.7158 1091.2233-31.4099 1087.995-31.4099 1085.1625-33.8738 1084.7308-37.0842 1084.2274-39.3052 1086.0707-41.1667 1085.693-43.3518 1083.7506-56.1926 1075.4328-66.9565 1067.2858-76.6411 1044.7152-101.1003 1016.8661-120.1099 988.6483-137.447 925.3246-175.5654 853.4132-197.4976 781.1422-211.1659 720.2284-221.6779 658.7211-230.1306 596.8993-232.3517 496.6981-234.5908 394.8334-229.3662 298.2294-200.8517 249.1405-186.8058 200.0874-170.4398 157.374-141.7993 121.5398-118.4285 86.0833-93.2681 56.6155-62.2085 39.719-44.5657 23.7577-25.9158 9.6667-5.9438 7.8862-3.2102 5.7551 .7375 2.5089 .7375 1.7445 .7375 .9082 .5127 0 0Z"/>
</g>
</svg>
