<?xml version="1.0" encoding="UTF-8"?>
<svg xmlns="http://www.w3.org/2000/svg" xmlns:xlink="http://www.w3.org/1999/xlink" width="700pt" height="700pt" viewBox="0 0 700 700" version="1.1">
<defs>
<clipPath id="clip1">
  <path d="M 64.589844 577.28125 L 635.410156 577.28125 L 635.410156 649.929688 L 64.589844 649.929688 Z M 64.589844 577.28125 "/>
</clipPath>
</defs>
<g id="surface1">
<path style=" stroke:none;fill-rule:nonzero;fill:rgb(0%,0%,0%);fill-opacity:1;" d="M 333.738281 523.921875 C 262.410156 519.082031 194.40625 481.667969 152.664063 423.617188 C 140.71875 407.308594 131.191406 389.351563 123.605469 370.644531 C 122.714844 369.359375 124.792969 368.085938 125.453125 369.535156 C 131.1875 382.878906 138.714844 395.746094 146.640625 407.671875 C 214.9375 509.535156 349.335938 546.71875 459.1875 491.425781 C 545.765625 448.539063 599.527344 354.476563 592.148438 258.363281 C 579.875 86.644531 397.347656 -17.398438 243.449219 59.226563 C 206.570313 77.714844 174.609375 105.875 151.632813 139.8125 C 148.378906 145.3125 140.03125 140.476563 143.1875 134.878906 C 161.230469 108.148438 184.410156 84.882813 211.175781 66.863281 C 362.800781 -35.273438 570.09375 54.730469 598.78125 235.320313 C 624.320313 393.542969 493.671875 536.1875 333.738281 523.921875 Z M 333.738281 523.921875 "/>
<path style=" stroke:none;fill-rule:nonzero;fill:rgb(0%,0%,0%);fill-opacity:1;" d="M 151.367188 141.652344 C 151.367188 141.382813 151.589844 141.160156 151.859375 141.160156 C 152.125 141.160156 152.347656 141.382813 152.347656 141.652344 C 152.347656 141.917969 152.125 142.140625 151.859375 142.140625 C 151.589844 142.140625 151.367188 141.917969 151.367188 141.652344 Z M 151.367188 141.652344 "/>
<path style=" stroke:none;fill-rule:nonzero;fill:rgb(0%,0%,0%);fill-opacity:1;" d="M 144.488281 145.542969 C 143.515625 145.546875 142.804688 144.210938 143.628906 143.4375 C 144.210938 142.886719 144.921875 142.488281 145.628906 142.113281 C 151.894531 138.691406 158.503906 135.941406 165.054688 133.136719 C 197.367188 118.605469 232.050781 111.34375 266.515625 103.957031 C 274.6875 101.90625 278.019531 113.914063 269.921875 116.308594 C 265.589844 117.28125 261.171875 117.832031 256.785156 118.492188 C 236.90625 121.582031 216.898438 124.214844 197.363281 129.15625 C 179.398438 133.332031 161.988281 140.328125 144.488281 145.542969 Z M 144.488281 145.542969 "/>
<path style=" stroke:none;fill-rule:nonzero;fill:rgb(0%,0%,0%);fill-opacity:1;" d="M 136.464844 147.917969 C 131.839844 145.730469 132.039063 141.125 134.308594 137.199219 C 135.996094 131.816406 137 126.234375 138.195313 120.730469 C 142.703125 95.769531 147.054688 70.566406 147.1875 45.128906 C 144.457031 39.828125 153.417969 38.039063 152.972656 44.027344 C 153.738281 48.941406 153.78125 53.941406 154.039063 58.894531 C 154.632813 80.164063 152.457031 101.410156 149.742188 122.480469 C 148.03125 129.851563 148.242188 151.453125 136.464844 147.917969 Z M 136.464844 147.917969 "/>
<path style=" stroke:none;fill-rule:nonzero;fill:rgb(0%,0%,0%);fill-opacity:1;" d="M 346.972656 275.761719 C 345.96875 275.816406 345.878906 274.609375 345.902344 273.835938 C 345.582031 262.457031 345.300781 251.070313 344.984375 239.699219 C 344.394531 215.523438 343.828125 191.363281 343.285156 167.1875 C 343.023438 155.605469 342.894531 144.015625 342.566406 132.425781 C 342.648438 127.734375 340.714844 121.445313 346.972656 120.992188 C 349.578125 120.914063 351.988281 123.527344 351.613281 126.042969 C 351.136719 137.039063 351.097656 148.035156 350.832031 159.042969 C 350.351563 183.085938 349.714844 207.132813 349.171875 231.179688 C 348.851563 244.769531 348.453125 258.371094 348.109375 271.96875 C 347.867188 273.191406 348.652344 275.570313 346.972656 275.761719 Z M 346.972656 275.761719 "/>
<path style=" stroke:none;fill-rule:nonzero;fill:rgb(0%,0%,0%);fill-opacity:1;" d="M 454.273438 389.933594 C 448.429688 385.492188 443.671875 379.5 438.414063 374.320313 C 428.8125 364.695313 419.257813 355.027344 409.640625 345.421875 C 388.242188 323.363281 365.546875 302.261719 346.503906 278.078125 C 346.074219 277.363281 345.363281 276.746094 345.273438 275.882813 C 345.320313 274.972656 346.394531 274.90625 346.988281 275.429688 C 363.628906 287.65625 377.925781 302.789063 392.875 316.972656 C 408.539063 332.371094 424.085938 347.890625 439.652344 363.386719 C 446.277344 370.433594 454.164063 376.542969 460.121094 384.085938 C 461.714844 387.613281 457.820313 391.554688 454.273438 389.933594 Z M 454.273438 389.933594 "/>
<g clip-path="url(#clip1)" clip-rule="nonzero">
<path style=" stroke:none;fill-rule:nonzero;fill:rgb(0%,0%,0%);fill-opacity:1;" d="M 82.613281 635.671875 C 82.765625 635.121094 82.992188 634.617188 83.300781 634.15625 C 83.605469 633.699219 83.929688 633.238281 84.265625 632.78125 C 84.601563 632.320313 84.832031 631.816406 84.953125 631.265625 C 85.445313 631.265625 85.8125 630.988281 86.054688 630.4375 C 86.300781 629.886719 86.546875 629.277344 86.792969 628.601563 C 87.035156 627.929688 87.3125 627.285156 87.617188 626.671875 C 87.921875 626.058594 88.382813 625.660156 88.996094 625.476563 C 90.402344 629.398438 92.300781 632.796875 94.691406 635.671875 C 97.078125 638.550781 99.773438 641.09375 102.773438 643.296875 C 104.792969 644.03125 106.433594 644.292969 107.6875 644.078125 C 108.941406 643.863281 110.042969 643.421875 110.996094 642.746094 C 111.945313 642.074219 112.816406 641.339844 113.613281 640.542969 C 114.40625 639.746094 115.328125 639.105469 116.367188 638.613281 C 116.0625 637.878906 116.046875 637.433594 116.324219 637.28125 C 116.597656 637.128906 116.703125 636.777344 116.644531 636.226563 C 117.132813 636.285156 117.410156 636.394531 117.46875 636.546875 C 117.53125 636.699219 117.714844 636.652344 118.023438 636.410156 C 118.757813 635.0625 119.460938 633.714844 120.132813 632.367188 C 120.808594 631.019531 121.726563 629.886719 122.890625 628.96875 C 123.195313 627.375 123.683594 625.648438 124.359375 623.777344 C 125.03125 621.910156 125.644531 620.089844 126.195313 618.3125 C 126.136719 616.355469 126.226563 614.546875 126.472656 612.894531 C 126.714844 611.242188 126.992188 609.648438 127.300781 608.117188 C 127.605469 606.585938 127.941406 605.027344 128.308594 603.433594 C 128.675781 601.839844 128.953125 600.125 129.136719 598.289063 C 129.808594 597.859375 130.332031 597.339844 130.699219 596.726563 C 131.066406 596.117188 131.355469 595.441406 131.570313 594.707031 C 131.785156 593.972656 131.984375 593.238281 132.167969 592.503906 C 132.351563 591.765625 132.625 591.09375 132.992188 590.480469 C 132.75 589.074219 132.257813 587.804688 131.523438 586.667969 C 130.789063 585.535156 129.992188 584.359375 129.136719 583.132813 C 128.035156 582.949219 127.117188 582.582031 126.378906 582.03125 C 125.644531 581.480469 124.941406 580.882813 124.269531 580.238281 C 123.59375 579.597656 122.875 579.015625 122.109375 578.496094 C 121.34375 577.976563 120.410156 577.652344 119.308594 577.53125 C 118.816406 578.386719 118.433594 579.351563 118.160156 580.421875 C 117.882813 581.496094 117.609375 582.550781 117.332031 583.59375 C 117.058594 584.632813 116.71875 585.644531 116.324219 586.625 C 115.921875 587.605469 115.386719 588.429688 114.714844 589.105469 C 114.164063 592.65625 113.628906 596.144531 113.109375 599.574219 C 112.585938 603.003906 111.851563 606.21875 110.902344 609.21875 C 109.953125 612.21875 108.667969 614.945313 107.046875 617.394531 C 105.421875 619.84375 103.292969 621.835938 100.660156 623.363281 C 100.230469 621.46875 99.988281 619.628906 99.925781 617.855469 C 99.863281 616.078125 99.863281 614.347656 99.925781 612.664063 C 99.988281 610.980469 100.046875 609.328125 100.109375 607.703125 C 100.171875 606.082031 100.109375 604.476563 99.925781 602.882813 C 100.171875 602.945313 100.339844 602.925781 100.433594 602.835938 C 100.523438 602.742188 100.601563 602.636719 100.660156 602.515625 C 100.722656 602.390625 100.800781 602.285156 100.890625 602.191406 C 100.984375 602.101563 101.152344 602.054688 101.394531 602.054688 C 101.152344 601.261719 101.105469 600.632813 101.257813 600.171875 C 101.410156 599.710938 101.609375 599.285156 101.855469 598.886719 C 102.097656 598.488281 102.28125 598.046875 102.40625 597.554688 C 102.527344 597.066406 102.4375 596.390625 102.132813 595.535156 C 102.4375 595.65625 102.652344 595.640625 102.773438 595.488281 C 102.894531 595.335938 103.109375 595.289063 103.417969 595.351563 C 103.109375 594.921875 102.957031 594.585938 102.957031 594.339844 C 102.957031 594.09375 102.988281 593.894531 103.050781 593.742188 C 103.109375 593.589844 103.125 593.4375 103.09375 593.28125 C 103.0625 593.128906 102.894531 592.871094 102.589844 592.503906 C 102.710938 592.257813 102.867188 592.195313 103.050781 592.320313 C 103.234375 592.441406 103.386719 592.320313 103.507813 591.949219 C 103.203125 590.113281 102.574219 588.476563 101.625 587.035156 C 100.675781 585.597656 99.527344 584.328125 98.179688 583.226563 C 96.832031 582.121094 95.347656 581.15625 93.726563 580.332031 C 92.101563 579.503906 90.433594 578.785156 88.71875 578.171875 C 86.820313 582.339844 84.847656 586.578125 82.796875 590.894531 C 80.742188 595.210938 78.691406 599.5 76.640625 603.753906 C 74.589844 608.011719 72.554688 612.203125 70.535156 616.339844 C 68.511719 620.472656 66.613281 624.4375 64.839844 628.234375 C 65.265625 628.722656 65.558594 629.351563 65.710938 630.117188 C 65.863281 630.882813 66.09375 631.570313 66.398438 632.183594 C 66.214844 632.183594 66.019531 632.167969 65.804688 632.136719 C 65.589844 632.105469 65.480469 632.214844 65.480469 632.457031 C 66.03125 633.5 66.566406 634.726563 67.089844 636.132813 C 67.609375 637.542969 68.222656 638.921875 68.925781 640.265625 C 69.628906 641.613281 70.457031 642.855469 71.40625 643.988281 C 72.355469 645.121094 73.53125 645.902344 74.941406 646.328125 C 75.492188 646.207031 75.953125 646.023438 76.320313 645.777344 C 76.6875 645.535156 77.300781 645.472656 78.15625 645.59375 C 78.035156 645.105469 77.894531 644.828125 77.742188 644.765625 C 77.589844 644.707031 77.636719 644.523438 77.882813 644.214844 C 79.042969 644.277344 79.855469 644.046875 80.316406 643.527344 C 80.773438 643.007813 81.097656 642.378906 81.28125 641.644531 C 81.464844 640.910156 81.617188 640.160156 81.738281 639.394531 C 81.863281 638.628906 82.230469 638 82.839844 637.511719 C 82.535156 636.835938 82.457031 636.226563 82.613281 635.671875 Z M 180.207031 611.011719 C 179.042969 608.347656 177.726563 605.820313 176.257813 603.433594 C 176.5 603.1875 176.59375 602.789063 176.53125 602.238281 C 176.472656 601.933594 176.289063 601.765625 175.980469 601.734375 C 175.675781 601.703125 175.550781 601.472656 175.613281 601.042969 C 176.226563 600.738281 176.609375 600.265625 176.761719 599.621094 C 176.914063 598.976563 177.144531 598.351563 177.453125 597.738281 C 177.207031 596.941406 176.960938 596.40625 176.714844 596.128906 C 176.472656 595.855469 176.257813 595.289063 176.074219 594.429688 C 175.828125 594.371094 175.660156 594.402344 175.570313 594.523438 C 175.476563 594.644531 175.308594 594.675781 175.0625 594.613281 C 174.941406 594.0625 174.710938 593.636719 174.375 593.328125 C 174.035156 593.023438 173.683594 592.730469 173.316406 592.457031 C 172.949219 592.179688 172.613281 591.875 172.308594 591.539063 C 172 591.203125 171.816406 590.726563 171.757813 590.113281 C 171.082031 589.441406 170.300781 589.042969 169.414063 588.917969 C 168.527344 588.796875 167.714844 588.550781 166.980469 588.183594 C 166.183594 588.675781 165.585938 589.136719 165.1875 589.5625 C 164.789063 589.992188 164.347656 590.636719 163.855469 591.492188 C 163.183594 591.613281 162.675781 591.675781 162.339844 591.675781 C 162.003906 591.675781 161.5625 591.707031 161.007813 591.765625 C 160.273438 592.6875 159.644531 593.464844 159.125 594.109375 C 158.605469 594.753906 157.792969 595.320313 156.691406 595.808594 C 156.691406 596.820313 156.691406 596.820313 156.691406 596.820313 C 156.203125 596.941406 155.773438 597.140625 155.40625 597.417969 C 155.039063 597.691406 154.6875 597.984375 154.351563 598.289063 C 154.011719 598.597656 153.660156 598.871094 153.292969 599.117188 C 152.925781 599.359375 152.46875 599.542969 151.914063 599.667969 C 151.425781 600.523438 150.769531 601.183594 149.941406 601.640625 C 149.113281 602.101563 148.484375 602.789063 148.058594 603.707031 C 147.75 603.769531 147.492188 603.921875 147.277344 604.167969 C 147.0625 604.414063 146.863281 604.671875 146.679688 604.949219 C 146.496094 605.222656 146.296875 605.4375 146.082031 605.589844 C 145.867188 605.746094 145.578125 605.761719 145.210938 605.636719 C 143.558594 607.597656 141.84375 609.601563 140.066406 611.652344 C 138.289063 613.707031 136.714844 615.941406 135.335938 618.359375 C 133.957031 620.777344 132.902344 623.410156 132.167969 626.257813 C 131.433594 629.105469 131.308594 632.273438 131.800781 635.765625 C 132.472656 637.417969 133.34375 638.996094 134.417969 640.496094 C 135.488281 641.996094 136.746094 643.28125 138.183594 644.355469 C 139.621094 645.425781 141.273438 646.207031 143.144531 646.695313 C 145.011719 647.183594 147.046875 647.277344 149.253906 646.972656 C 151.578125 647.460938 153.617188 647.597656 155.359375 647.386719 C 157.105469 647.167969 158.898438 646.726563 160.734375 646.054688 C 161.46875 646.113281 162.324219 646.070313 163.304688 645.914063 C 164.285156 645.761719 165.265625 645.519531 166.246094 645.179688 C 167.222656 644.84375 168.175781 644.476563 169.09375 644.078125 C 170.011719 643.679688 170.804688 643.296875 171.480469 642.929688 C 172.335938 642.746094 173.179688 642.5625 174.007813 642.378906 C 174.832031 642.195313 175.582031 641.890625 176.257813 641.460938 C 177.296875 640.605469 178.429688 639.867188 179.65625 639.257813 C 180.878906 638.644531 181.921875 637.785156 182.777344 636.683594 C 183.453125 636.316406 184.035156 635.75 184.523438 634.984375 C 185.011719 634.21875 185.410156 633.363281 185.71875 632.414063 C 186.023438 631.464844 186.238281 630.484375 186.359375 629.472656 C 186.484375 628.464844 186.484375 627.53125 186.359375 626.671875 C 186.238281 626 186.054688 625.324219 185.808594 624.652344 C 185.566406 623.976563 185.304688 623.320313 185.03125 622.675781 C 184.753906 622.035156 184.523438 621.375 184.339844 620.703125 C 184.15625 620.027344 184.09375 619.324219 184.15625 618.589844 C 182.6875 616.199219 181.371094 613.675781 180.207031 611.011719 Z M 166.886719 630.390625 C 165.050781 631.402344 162.847656 632.214844 160.273438 632.824219 C 159.050781 632.824219 157.71875 632.964844 156.277344 633.238281 C 154.839844 633.515625 153.371094 633.714844 151.871094 633.835938 C 150.367188 633.960938 148.914063 633.929688 147.507813 633.746094 C 146.097656 633.5625 144.875 633.042969 143.832031 632.183594 C 143.894531 630.714844 144.167969 629.425781 144.660156 628.324219 C 145.148438 627.222656 145.730469 626.183594 146.40625 625.203125 C 147.078125 624.222656 147.765625 623.257813 148.472656 622.308594 C 149.175781 621.359375 149.773438 620.304688 150.261719 619.140625 C 150.566406 619.019531 150.753906 618.972656 150.8125 619.003906 C 150.875 619.035156 151.027344 618.988281 151.273438 618.863281 C 152.679688 617.089844 154.273438 615.527344 156.050781 614.179688 C 157.824219 612.832031 159.601563 611.457031 161.378906 610.046875 C 161.683594 610.292969 162.035156 610.492188 162.433594 610.644531 C 162.832031 610.796875 163.214844 610.890625 163.582031 610.917969 C 163.949219 610.949219 164.285156 610.859375 164.59375 610.644531 C 164.898438 610.429688 165.113281 610.078125 165.234375 609.585938 C 165.601563 609.953125 165.9375 610.015625 166.246094 609.769531 C 166.550781 609.527344 166.765625 609.28125 166.886719 609.035156 C 168.113281 610.933594 169.214844 612.972656 170.195313 615.144531 C 171.171875 617.320313 172.335938 619.355469 173.683594 621.253906 C 173.683594 621.867188 173.714844 622.308594 173.777344 622.585938 C 173.835938 622.859375 174.019531 623.242188 174.328125 623.734375 C 174.265625 624.589844 174.035156 625.234375 173.640625 625.660156 C 173.242188 626.089844 172.917969 626.640625 172.675781 627.316406 C 170.65625 628.355469 168.726563 629.382813 166.886719 630.390625 Z M 250.933594 644.582031 C 251.730469 644.582031 252.511719 644.554688 253.277344 644.492188 C 254.042969 644.429688 254.792969 644.339844 255.527344 644.214844 C 256.261719 644.15625 256.996094 644.09375 257.730469 644.03125 C 258.46875 643.972656 259.171875 643.941406 259.84375 643.941406 C 261.621094 643.941406 263.335938 644.214844 264.988281 644.765625 C 266.210938 644.460938 267.253906 644.308594 268.113281 644.308594 C 268.296875 644.308594 268.492188 644.308594 268.707031 644.308594 C 268.921875 644.308594 269.273438 644.277344 269.765625 644.214844 C 270.070313 643.910156 270.390625 643.636719 270.730469 643.390625 C 271.066406 643.144531 271.695313 642.929688 272.613281 642.746094 C 272.429688 641.734375 272.429688 641.734375 272.429688 641.734375 C 272.671875 641.492188 272.796875 641.125 272.796875 640.632813 C 272.855469 640.449219 272.671875 640.082031 272.246094 639.53125 C 271.601563 635.582031 271.601563 635.582031 271.601563 635.582031 C 270.988281 635.09375 270.363281 634.710938 269.71875 634.433594 C 269.074219 634.15625 268.417969 633.898438 267.742188 633.652344 C 267.007813 633.410156 266.304688 633.132813 265.632813 632.824219 C 264.957031 632.519531 264.253906 632.03125 263.519531 631.355469 C 263.210938 631.296875 262.84375 631.265625 262.417969 631.265625 C 262.109375 631.265625 261.878906 631.25 261.726563 631.21875 C 261.574219 631.1875 261.222656 631.019531 260.671875 630.714844 C 259.9375 630.835938 259.140625 630.898438 258.28125 630.898438 C 257.425781 630.898438 256.566406 630.898438 255.710938 630.898438 C 253.566406 630.957031 251.410156 631.082031 249.234375 631.265625 C 247.0625 631.449219 245.054688 632.03125 243.21875 633.011719 C 242.484375 632.824219 241.839844 632.734375 241.289063 632.734375 C 241.042969 632.734375 240.785156 632.734375 240.507813 632.734375 C 240.234375 632.734375 239.941406 632.796875 239.636719 632.917969 C 239.757813 630.652344 240.109375 628.632813 240.691406 626.855469 C 241.273438 625.082031 241.933594 623.304688 242.667969 621.527344 C 243.09375 620.550781 243.507813 619.570313 243.90625 618.589844 C 244.304688 617.609375 244.597656 616.324219 244.78125 614.730469 C 245.085938 614.488281 245.316406 614.195313 245.46875 613.859375 C 245.621094 613.523438 245.757813 613.199219 245.882813 612.894531 C 246.003906 612.589844 246.113281 612.3125 246.203125 612.066406 C 246.296875 611.824219 246.464844 611.546875 246.710938 611.242188 C 246.953125 609.894531 247.261719 608.761719 247.628906 607.84375 C 247.996094 606.921875 248.394531 606.003906 248.820313 605.085938 C 249.191406 604.230469 249.542969 603.371094 249.878906 602.515625 C 250.214844 601.65625 250.535156 600.617188 250.84375 599.390625 C 251.027344 599.390625 251.300781 599.117188 251.667969 598.566406 C 251.851563 597.21875 251.699219 596.128906 251.210938 595.304688 C 250.71875 594.476563 250.136719 593.667969 249.464844 592.871094 C 249.339844 592.746094 249.21875 592.609375 249.097656 592.457031 C 248.972656 592.304688 248.667969 592.074219 248.179688 591.765625 C 247.199219 591.765625 245.972656 591.507813 244.503906 590.988281 C 243.035156 590.46875 241.75 589.929688 240.648438 589.378906 C 240.402344 589.441406 240.097656 589.53125 239.726563 589.65625 C 239.484375 589.777344 239.117188 589.992188 238.625 590.296875 C 237.890625 593.421875 237.066406 596.328125 236.144531 599.023438 C 235.226563 601.71875 234.246094 604.441406 233.207031 607.199219 C 232.59375 608.792969 231.996094 610.398438 231.414063 612.019531 C 230.832031 613.644531 230.113281 615.621094 229.257813 617.945313 C 228.949219 618.496094 228.675781 619.109375 228.429688 619.78125 C 228.183594 620.457031 228.183594 621.070313 228.429688 621.621094 C 227.941406 622.292969 227.558594 623.089844 227.28125 624.007813 C 227.007813 624.925781 226.746094 625.875 226.5 626.855469 C 226.441406 627.164063 226.394531 627.4375 226.363281 627.683594 C 226.332031 627.929688 226.257813 628.171875 226.132813 628.417969 C 225.828125 629.519531 225.628906 630.683594 225.535156 631.90625 C 225.445313 633.132813 225.476563 634.34375 225.628906 635.535156 C 225.78125 636.730469 226.074219 637.894531 226.5 639.027344 C 226.929688 640.160156 227.511719 641.15625 228.246094 642.011719 C 228.308594 642.503906 228.414063 642.882813 228.566406 643.160156 C 228.71875 643.433594 228.890625 643.695313 229.074219 643.941406 C 229.316406 644.1875 229.59375 644.644531 229.898438 645.316406 C 231.675781 646.847656 234.09375 647.613281 237.15625 647.613281 C 239.175781 647.613281 241.199219 647.339844 243.21875 646.789063 C 245.238281 646.238281 247.105469 645.6875 248.820313 645.132813 C 250.933594 644.582031 250.933594 644.582031 250.933594 644.582031 Z M 324.324219 611.011719 C 323.164063 608.347656 321.847656 605.820313 320.375 603.433594 C 320.621094 603.1875 320.710938 602.789063 320.652344 602.238281 C 320.589844 601.933594 320.40625 601.765625 320.101563 601.734375 C 319.792969 601.703125 319.671875 601.472656 319.734375 601.042969 C 320.34375 600.738281 320.726563 600.265625 320.882813 599.621094 C 321.035156 598.976563 321.261719 598.351563 321.570313 597.738281 C 321.324219 596.941406 321.078125 596.40625 320.835938 596.128906 C 320.589844 595.855469 320.375 595.289063 320.191406 594.429688 C 319.949219 594.371094 319.78125 594.402344 319.6875 594.523438 C 319.59375 594.644531 319.425781 594.675781 319.183594 594.613281 C 319.058594 594.0625 318.828125 593.636719 318.492188 593.328125 C 318.15625 593.023438 317.804688 592.730469 317.4375 592.457031 C 317.070313 592.179688 316.730469 591.875 316.425781 591.539063 C 316.121094 591.203125 315.9375 590.726563 315.875 590.113281 C 315.199219 589.441406 314.421875 589.042969 313.535156 588.917969 C 312.644531 588.796875 311.835938 588.550781 311.097656 588.183594 C 310.300781 588.675781 309.707031 589.136719 309.308594 589.5625 C 308.910156 589.992188 308.464844 590.636719 307.976563 591.492188 C 307.300781 591.613281 306.796875 591.675781 306.460938 591.675781 C 306.125 591.675781 305.679688 591.707031 305.128906 591.765625 C 304.394531 592.6875 303.765625 593.464844 303.246094 594.109375 C 302.722656 594.753906 301.914063 595.320313 300.8125 595.808594 C 300.8125 596.820313 300.8125 596.820313 300.8125 596.820313 C 300.320313 596.941406 299.894531 597.140625 299.527344 597.417969 C 299.15625 597.691406 298.804688 597.984375 298.46875 598.289063 C 298.132813 598.597656 297.78125 598.871094 297.414063 599.117188 C 297.046875 599.359375 296.585938 599.542969 296.035156 599.667969 C 295.542969 600.523438 294.886719 601.183594 294.058594 601.640625 C 293.234375 602.101563 292.605469 602.789063 292.175781 603.707031 C 291.871094 603.769531 291.609375 603.921875 291.398438 604.167969 C 291.179688 604.414063 290.984375 604.671875 290.800781 604.949219 C 290.617188 605.222656 290.417969 605.4375 290.203125 605.589844 C 289.988281 605.746094 289.695313 605.761719 289.328125 605.636719 C 287.675781 607.597656 285.960938 609.601563 284.1875 611.652344 C 282.410156 613.707031 280.832031 615.941406 279.457031 618.359375 C 278.078125 620.777344 277.019531 623.410156 276.285156 626.257813 C 275.550781 629.105469 275.429688 632.273438 275.917969 635.765625 C 276.59375 637.417969 277.464844 638.996094 278.535156 640.496094 C 279.609375 641.996094 280.863281 643.28125 282.304688 644.355469 C 283.742188 645.425781 285.394531 646.207031 287.261719 646.695313 C 289.128906 647.183594 291.167969 647.277344 293.371094 646.972656 C 295.699219 647.460938 297.734375 647.597656 299.480469 647.386719 C 301.226563 647.167969 303.015625 646.726563 304.851563 646.054688 C 305.589844 646.113281 306.445313 646.070313 307.425781 645.914063 C 308.402344 645.761719 309.382813 645.519531 310.363281 645.179688 C 311.34375 644.84375 312.292969 644.476563 313.210938 644.078125 C 314.128906 643.679688 314.925781 643.296875 315.601563 642.929688 C 316.457031 642.746094 317.300781 642.5625 318.125 642.378906 C 318.953125 642.195313 319.703125 641.890625 320.375 641.460938 C 321.417969 640.605469 322.550781 639.867188 323.773438 639.257813 C 325 638.644531 326.039063 637.785156 326.898438 636.683594 C 327.570313 636.316406 328.152344 635.75 328.644531 634.984375 C 329.132813 634.21875 329.53125 633.363281 329.835938 632.414063 C 330.144531 631.464844 330.355469 630.484375 330.480469 629.472656 C 330.601563 628.464844 330.601563 627.53125 330.480469 626.671875 C 330.355469 626 330.171875 625.324219 329.929688 624.652344 C 329.683594 623.976563 329.425781 623.320313 329.148438 622.675781 C 328.871094 622.035156 328.644531 621.375 328.460938 620.703125 C 328.277344 620.027344 328.214844 619.324219 328.277344 618.589844 C 326.804688 616.199219 325.488281 613.675781 324.324219 611.011719 Z M 311.007813 630.390625 C 309.171875 631.402344 306.964844 632.214844 304.394531 632.824219 C 303.167969 632.824219 301.835938 632.964844 300.398438 633.238281 C 298.957031 633.515625 297.488281 633.714844 295.988281 633.835938 C 294.488281 633.960938 293.035156 633.929688 291.625 633.746094 C 290.214844 633.5625 288.992188 633.042969 287.953125 632.183594 C 288.011719 630.714844 288.289063 629.425781 288.777344 628.324219 C 289.269531 627.222656 289.847656 626.183594 290.523438 625.203125 C 291.195313 624.222656 291.886719 623.257813 292.589844 622.308594 C 293.292969 621.359375 293.890625 620.304688 294.382813 619.140625 C 294.6875 619.019531 294.871094 618.972656 294.933594 619.003906 C 294.992188 619.035156 295.148438 618.988281 295.390625 618.863281 C 296.800781 617.089844 298.390625 615.527344 300.167969 614.179688 C 301.945313 612.832031 303.71875 611.457031 305.496094 610.046875 C 305.800781 610.292969 306.152344 610.492188 306.550781 610.644531 C 306.949219 610.796875 307.332031 610.890625 307.699219 610.917969 C 308.066406 610.949219 308.402344 610.859375 308.710938 610.644531 C 309.015625 610.429688 309.230469 610.078125 309.355469 609.585938 C 309.722656 609.953125 310.058594 610.015625 310.363281 609.769531 C 310.671875 609.527344 310.882813 609.28125 311.007813 609.035156 C 312.230469 610.933594 313.332031 612.972656 314.3125 615.144531 C 315.292969 617.320313 316.457031 619.355469 317.804688 621.253906 C 317.804688 621.867188 317.835938 622.308594 317.894531 622.585938 C 317.957031 622.859375 318.140625 623.242188 318.449219 623.734375 C 318.386719 624.589844 318.15625 625.234375 317.757813 625.660156 C 317.359375 626.089844 317.039063 626.640625 316.792969 627.316406 C 314.773438 628.355469 312.84375 629.382813 311.007813 630.390625 Z M 398.820313 627.773438 C 398.636719 627.285156 398.605469 626.640625 398.726563 625.84375 C 397.871094 625.417969 397.121094 624.898438 396.476563 624.285156 C 395.835938 623.671875 395.207031 623.042969 394.59375 622.402344 C 393.980469 621.757813 393.339844 621.128906 392.664063 620.519531 C 391.992188 619.90625 391.226563 619.414063 390.371094 619.046875 C 389.390625 618.496094 388.332031 617.929688 387.199219 617.347656 C 386.066406 616.765625 384.964844 616.1875 383.894531 615.601563 C 382.820313 615.023438 381.796875 614.441406 380.816406 613.859375 C 379.835938 613.277344 379.007813 612.742188 378.335938 612.25 C 372 616.476563 372 616.476563 372 616.476563 C 371.875 616.96875 371.707031 617.394531 371.492188 617.761719 C 371.277344 618.128906 371.140625 618.589844 371.078125 619.140625 C 371.324219 619.261719 371.476563 619.277344 371.539063 619.1875 C 371.597656 619.09375 371.644531 618.988281 371.675781 618.863281 C 371.707031 618.742188 371.753906 618.652344 371.816406 618.589844 C 371.875 618.527344 372.027344 618.527344 372.273438 618.589844 C 372.640625 618.835938 372.824219 619.171875 372.824219 619.597656 C 372.824219 620.027344 372.640625 620.394531 372.273438 620.703125 C 372.394531 621.925781 372.71875 622.90625 373.238281 623.640625 C 373.757813 624.375 374.445313 624.988281 375.304688 625.476563 C 375.058594 625.722656 374.769531 625.953125 374.433594 626.167969 C 374.09375 626.382813 374.078125 626.640625 374.386719 626.949219 C 374.753906 627.070313 375.136719 627.207031 375.535156 627.359375 C 375.933594 627.515625 376.375 627.683594 376.867188 627.867188 C 373.742188 628.722656 370.679688 629.535156 367.679688 630.300781 C 364.679688 631.066406 361.433594 631.632813 357.945313 632 C 357.699219 632.121094 357.546875 632.304688 357.484375 632.550781 C 357.421875 632.796875 357.300781 632.980469 357.117188 633.101563 C 355.402344 632.734375 353.703125 632.628906 352.019531 632.78125 C 350.335938 632.933594 348.515625 632.949219 346.554688 632.824219 C 346.429688 632.519531 346.292969 632.289063 346.140625 632.136719 C 345.988281 631.984375 345.851563 631.753906 345.726563 631.449219 C 346.707031 629.734375 347.902344 628.003906 349.308594 626.257813 C 350.71875 624.511719 352.21875 622.8125 353.8125 621.160156 C 355.402344 619.507813 357.054688 617.929688 358.769531 616.429688 C 360.484375 614.929688 362.171875 613.566406 363.824219 612.34375 C 365.476563 611.117188 367.175781 610.03125 368.921875 609.082031 C 370.667969 608.132813 372.351563 607.246094 373.972656 606.417969 C 375.59375 605.589844 377.15625 604.8125 378.65625 604.074219 C 380.15625 603.339844 381.519531 602.574219 382.746094 601.78125 C 382.621094 601.351563 382.636719 601.042969 382.792969 600.859375 C 382.945313 600.675781 383.019531 600.433594 383.019531 600.125 C 383.019531 599.820313 382.851563 599.652344 382.515625 599.621094 C 382.179688 599.589844 381.980469 599.421875 381.917969 599.117188 C 382.347656 599.117188 382.574219 598.976563 382.609375 598.703125 C 382.636719 598.425781 382.59375 598.152344 382.46875 597.875 C 382.347656 597.601563 382.269531 597.324219 382.238281 597.050781 C 382.207031 596.773438 382.378906 596.636719 382.746094 596.636719 C 382.378906 595.71875 381.855469 594.980469 381.183594 594.429688 C 380.507813 593.878906 379.789063 593.40625 379.023438 593.007813 C 378.257813 592.609375 377.492188 592.226563 376.730469 591.859375 C 375.960938 591.492188 375.367188 590.847656 374.9375 589.929688 C 374.570313 589.808594 374.234375 589.808594 373.925781 589.929688 C 373.621094 590.054688 373.128906 589.960938 372.457031 589.65625 C 370.863281 591.0625 369.105469 592.335938 367.175781 593.464844 C 365.246094 594.601563 363.300781 595.734375 361.34375 596.867188 C 359.382813 598 357.515625 599.175781 355.738281 600.402344 C 353.964844 601.628906 352.433594 602.972656 351.148438 604.441406 C 350.597656 604.566406 350.136719 604.765625 349.769531 605.039063 C 349.402344 605.316406 349.082031 605.636719 348.804688 606.003906 C 348.53125 606.371094 348.238281 606.738281 347.933594 607.105469 C 347.625 607.472656 347.257813 607.84375 346.832031 608.210938 C 344.011719 610.414063 341.59375 612.972656 339.574219 615.878906 C 337.554688 618.789063 335.746094 621.925781 334.15625 625.292969 C 334.277344 625.96875 334.261719 626.519531 334.109375 626.949219 C 333.957031 627.375 333.878906 627.898438 333.878906 628.507813 C 334 628.632813 334.140625 628.722656 334.292969 628.785156 C 334.445313 628.847656 334.492188 629.03125 334.429688 629.335938 C 334.734375 634.726563 336.191406 638.933594 338.792969 641.964844 C 341.394531 644.996094 344.992188 646.632813 349.585938 646.878906 C 350.199219 646.941406 350.886719 646.863281 351.652344 646.648438 C 352.417969 646.433594 353.167969 646.328125 353.902344 646.328125 C 354.453125 646.328125 355.144531 646.328125 355.96875 646.328125 C 356.796875 646.328125 357.730469 646.238281 358.769531 646.054688 C 358.894531 645.929688 358.984375 645.792969 359.046875 645.640625 C 359.105469 645.488281 359.261719 645.441406 359.507813 645.503906 C 360.179688 645.441406 360.792969 645.363281 361.34375 645.273438 C 361.894531 645.179688 362.460938 645.089844 363.042969 644.996094 C 363.625 644.90625 364.238281 644.828125 364.878906 644.765625 C 365.523438 644.707031 366.273438 644.675781 367.128906 644.675781 C 370.070313 643.511719 373.113281 642.5625 376.269531 641.828125 C 379.421875 641.09375 382.4375 640.253906 385.316406 639.300781 C 388.195313 638.351563 390.828125 637.160156 393.214844 635.71875 C 395.605469 634.28125 397.535156 632.246094 399.003906 629.609375 C 399.0625 628.875 399.003906 628.265625 398.820313 627.773438 Z M 476.574219 634.894531 C 476.726563 634.25 476.679688 633.5625 476.4375 632.824219 C 476.863281 632.398438 477.230469 631.894531 477.539063 631.3125 C 477.84375 630.730469 478.121094 630.117188 478.367188 629.472656 C 478.609375 628.832031 478.855469 628.203125 479.101563 627.589844 C 479.34375 626.980469 479.679688 626.429688 480.109375 625.9375 C 480.355469 623.488281 480.769531 621.175781 481.351563 619.003906 C 481.933594 616.828125 482.46875 614.578125 482.957031 612.25 C 482.898438 610.292969 482.820313 608.363281 482.726563 606.464844 C 482.636719 604.566406 482.5 602.730469 482.316406 600.953125 C 481.398438 600.21875 480.644531 599.34375 480.066406 598.335938 C 479.480469 597.324219 478.929688 596.253906 478.410156 595.121094 C 477.890625 593.988281 477.386719 592.855469 476.894531 591.722656 C 476.40625 590.589844 475.824219 589.53125 475.152344 588.550781 C 474.046875 588.796875 473.113281 589.332031 472.347656 590.160156 C 471.582031 590.988281 471 591.984375 470.605469 593.144531 C 470.203125 594.308594 469.976563 595.535156 469.914063 596.820313 C 469.851563 598.105469 469.976563 599.332031 470.28125 600.492188 C 469.851563 600.617188 469.546875 600.859375 469.363281 601.226563 C 469.179688 601.59375 468.933594 601.902344 468.628906 602.148438 C 468.996094 604.660156 468.933594 607.105469 468.445313 609.496094 C 467.953125 611.882813 467.558594 614.273438 467.25 616.660156 C 465.964844 617.335938 464.570313 617.898438 463.070313 618.359375 C 461.570313 618.820313 460.023438 619.230469 458.433594 619.597656 C 456.839844 619.964844 455.25 620.304688 453.65625 620.609375 C 452.0625 620.917969 450.535156 621.253906 449.0625 621.621094 C 449.246094 621.128906 449.203125 620.855469 448.925781 620.792969 C 448.652344 620.734375 448.480469 620.550781 448.421875 620.242188 C 448.664063 619.203125 448.925781 617.945313 449.203125 616.476563 C 449.476563 615.007813 449.753906 613.476563 450.027344 611.882813 C 450.304688 610.292969 450.535156 608.730469 450.71875 607.199219 C 450.902344 605.667969 451.023438 604.320313 451.085938 603.15625 C 450.472656 601.996094 449.8125 600.953125 449.109375 600.035156 C 448.40625 599.117188 447.699219 598.214844 446.996094 597.324219 C 446.292969 596.4375 445.648438 595.503906 445.070313 594.523438 C 444.484375 593.542969 444.011719 592.410156 443.644531 591.125 C 441.746094 591.675781 440.367188 592.824219 439.511719 594.570313 C 438.652344 596.3125 438.042969 598.335938 437.675781 600.632813 C 437.308594 602.925781 437.046875 605.347656 436.894531 607.886719 C 436.738281 610.429688 436.480469 612.710938 436.113281 614.730469 C 435.5 614.609375 435.164063 614.699219 435.101563 615.007813 C 435.285156 615.496094 435.390625 616.125 435.421875 616.890625 C 435.453125 617.65625 435.378906 618.449219 435.195313 619.277344 C 435.011719 620.105469 434.75 620.917969 434.414063 621.710938 C 434.074219 622.507813 433.691406 623.121094 433.265625 623.546875 C 433.203125 624.835938 433.019531 626.257813 432.714844 627.820313 C 432.40625 629.382813 431.765625 630.835938 430.785156 632.183594 C 431.027344 632.550781 431.121094 632.886719 431.0625 633.195313 C 431 633.5 430.90625 633.804688 430.785156 634.113281 C 430.660156 634.417969 430.539063 634.753906 430.417969 635.121094 C 430.292969 635.488281 430.292969 635.949219 430.417969 636.5 C 430.234375 636.316406 430.082031 636.285156 429.957031 636.410156 C 429.835938 636.53125 429.746094 636.714844 429.683594 636.960938 C 429.621094 637.203125 429.546875 637.480469 429.453125 637.785156 C 429.359375 638.09375 429.253906 638.308594 429.132813 638.429688 C 429.683594 639.410156 430.035156 640.21875 430.1875 640.863281 C 430.339844 641.507813 430.753906 642.257813 431.429688 643.113281 C 431 642.871094 430.753906 642.992188 430.691406 643.480469 C 430.632813 643.972656 430.753906 644.1875 431.0625 644.125 C 431.0625 644.246094 431.183594 644.386719 431.429688 644.539063 C 431.671875 644.691406 431.964844 644.875 432.300781 645.089844 C 432.636719 645.304688 432.957031 645.546875 433.265625 645.824219 C 433.570313 646.097656 433.722656 646.421875 433.722656 646.789063 C 434.886719 647.398438 435.898438 647.707031 436.753906 647.707031 C 437.613281 647.707031 438.410156 647.570313 439.144531 647.292969 C 439.878906 647.019531 440.582031 646.679688 441.257813 646.28125 C 441.929688 645.886719 442.695313 645.5625 443.554688 645.316406 C 443.675781 645.011719 443.675781 644.765625 443.554688 644.582031 C 443.429688 644.398438 443.335938 644.214844 443.277344 644.03125 C 443.703125 644.03125 444.132813 643.726563 444.5625 643.113281 C 444.992188 642.503906 445.390625 641.8125 445.757813 641.046875 C 446.125 640.28125 446.429688 639.546875 446.675781 638.84375 C 446.917969 638.140625 447.042969 637.695313 447.042969 637.511719 C 447.839844 637.019531 448.863281 636.441406 450.121094 635.765625 C 451.375 635.09375 452.722656 634.417969 454.160156 633.746094 C 455.601563 633.070313 457.085938 632.492188 458.617188 632 C 460.148438 631.511719 461.617188 631.203125 463.027344 631.082031 C 463.027344 631.144531 462.980469 631.496094 462.886719 632.136719 C 462.796875 632.78125 462.671875 633.46875 462.519531 634.203125 C 462.367188 634.9375 462.246094 635.613281 462.152344 636.226563 C 462.0625 636.835938 462.015625 637.175781 462.015625 637.234375 C 461.953125 638.703125 462.289063 640.007813 463.027344 641.140625 C 463.761719 642.273438 464.527344 643.574219 465.320313 645.042969 C 465.933594 645.226563 466.46875 645.488281 466.929688 645.824219 C 467.390625 646.160156 467.863281 646.480469 468.351563 646.789063 C 469.394531 646.421875 470.464844 646.023438 471.566406 645.59375 C 472.671875 645.167969 473.648438 644.582031 474.507813 643.847656 C 475.363281 643.113281 476.039063 642.226563 476.527344 641.183594 C 477.019531 640.144531 477.203125 638.828125 477.078125 637.234375 C 476.589844 636.316406 476.421875 635.535156 476.574219 634.894531 Z M 532.882813 592.640625 C 531.929688 591.9375 531.148438 591.0625 530.539063 590.023438 C 530.597656 590.574219 530.460938 590.742188 530.125 590.527344 C 529.789063 590.3125 529.496094 590.480469 529.253906 591.03125 C 528.761719 591.03125 528.242188 590.757813 527.691406 590.207031 C 525.121094 590.695313 522.824219 591.0625 520.800781 591.308594 C 518.78125 591.554688 516.835938 591.8125 514.96875 592.089844 C 513.101563 592.363281 511.203125 592.71875 509.273438 593.144531 C 507.34375 593.574219 505.15625 594.1875 502.707031 594.980469 C 501.359375 595.289063 500.074219 595.566406 498.847656 595.808594 C 497.625 596.054688 496.492188 596.359375 495.449219 596.726563 C 494.410156 597.09375 493.445313 597.570313 492.558594 598.152344 C 491.667969 598.734375 490.917969 599.484375 490.304688 600.402344 C 490.613281 601.445313 490.824219 602.46875 490.949219 603.480469 C 491.070313 604.488281 491.226563 605.46875 491.410156 606.417969 C 491.59375 607.367188 491.882813 608.316406 492.28125 609.265625 C 492.679688 610.214844 493.304688 611.089844 494.164063 611.882813 C 493.734375 613.046875 493.292969 614.105469 492.832031 615.050781 C 492.375 616.003906 491.914063 616.933594 491.453125 617.855469 C 490.996094 618.773438 490.550781 619.722656 490.121094 620.703125 C 489.695313 621.683594 489.296875 622.722656 488.929688 623.824219 C 488.5 623.765625 488.253906 623.871094 488.195313 624.144531 C 488.132813 624.421875 487.949219 624.589844 487.644531 624.652344 C 487.828125 625.507813 487.625 626.304688 487.046875 627.039063 C 486.464844 627.773438 486.082031 628.601563 485.898438 629.519531 C 485.714844 630.378906 485.667969 631.328125 485.757813 632.367188 C 485.851563 633.410156 485.988281 634.464844 486.171875 635.535156 C 486.355469 636.609375 486.539063 637.632813 486.722656 638.613281 C 486.90625 639.59375 487.03125 640.480469 487.089844 641.277344 C 487.765625 641.582031 488.179688 642.027344 488.332031 642.609375 C 488.484375 643.191406 488.804688 643.695313 489.296875 644.125 C 490.457031 645.289063 491.960938 646.097656 493.796875 646.558594 C 495.632813 647.019531 497.5625 647.277344 499.582031 647.339844 C 501.605469 647.398438 503.59375 647.308594 505.554688 647.0625 C 507.511719 646.816406 509.195313 646.542969 510.605469 646.238281 C 511.09375 646.238281 511.523438 646.3125 511.890625 646.464844 C 512.257813 646.617188 512.71875 646.632813 513.269531 646.511719 C 515.535156 646.085938 517.601563 645.71875 519.46875 645.410156 C 521.335938 645.105469 523.035156 644.675781 524.566406 644.125 C 526.097656 643.574219 527.460938 642.761719 528.65625 641.691406 C 529.847656 640.621094 530.90625 639.070313 531.824219 637.050781 C 531.457031 637.113281 531.195313 637.035156 531.042969 636.820313 C 530.890625 636.609375 530.78125 636.347656 530.722656 636.039063 C 530.660156 635.734375 530.585938 635.414063 530.492188 635.078125 C 530.402344 634.742188 530.230469 634.449219 529.988281 634.203125 C 529.4375 634.265625 528.976563 634.144531 528.609375 633.835938 C 528.242188 633.53125 527.890625 633.179688 527.554688 632.78125 C 527.214844 632.382813 526.863281 631.953125 526.496094 631.496094 C 526.128906 631.035156 525.699219 630.714844 525.210938 630.53125 C 523.800781 631.019531 522.257813 631.371094 520.574219 631.585938 C 518.886719 631.800781 517.433594 632.246094 516.210938 632.917969 C 514.25 632.859375 512.628906 632.902344 511.339844 633.054688 C 510.054688 633.210938 508.800781 633.363281 507.574219 633.515625 C 506.347656 633.667969 505.050781 633.777344 503.671875 633.835938 C 502.292969 633.898438 500.5625 633.777344 498.480469 633.46875 C 499.09375 631.816406 499.796875 630.253906 500.59375 628.785156 C 501.390625 627.316406 502.277344 625.9375 503.257813 624.652344 C 503.992188 624.898438 504.832031 625.003906 505.785156 624.972656 C 506.734375 624.941406 507.542969 625.082031 508.21875 625.386719 C 508.707031 625.082031 509.394531 624.988281 510.285156 625.109375 C 511.171875 625.234375 511.859375 625.140625 512.351563 624.835938 C 512.59375 625.019531 512.796875 625.109375 512.949219 625.109375 C 513.101563 625.109375 513.332031 625.109375 513.636719 625.109375 C 515.105469 625.171875 516.4375 625.035156 517.632813 624.695313 C 518.828125 624.359375 519.960938 623.917969 521.03125 623.363281 C 522.101563 622.8125 523.128906 622.1875 524.109375 621.480469 C 525.085938 620.777344 526.066406 620.089844 527.046875 619.414063 C 527.292969 618.804688 527.371094 618.207031 527.277344 617.625 C 527.1875 617.042969 527.015625 616.507813 526.773438 616.015625 C 526.160156 616.078125 525.625 615.972656 525.164063 615.695313 C 524.707031 615.417969 524.261719 615.066406 523.832031 614.640625 C 523.402344 614.210938 522.976563 613.765625 522.546875 613.308594 C 522.117188 612.847656 521.6875 612.464844 521.261719 612.160156 C 521.199219 611.914063 521.230469 611.746094 521.351563 611.652344 C 521.476563 611.5625 521.503906 611.363281 521.445313 611.058594 C 518.933594 611.117188 516.378906 611.273438 513.773438 611.515625 C 511.171875 611.761719 508.800781 611.792969 506.65625 611.609375 C 506.472656 611.242188 506.394531 610.765625 506.425781 610.183594 C 506.457031 609.601563 506.347656 609.035156 506.105469 608.484375 C 506.65625 608.300781 507.207031 608.132813 507.757813 607.980469 C 508.308594 607.828125 508.769531 607.566406 509.136719 607.199219 C 510.359375 607.324219 511.296875 607.230469 511.9375 606.921875 C 512.582031 606.617188 513.300781 606.617188 514.097656 606.921875 C 516.117188 605.699219 518.152344 604.902344 520.203125 604.535156 C 522.257813 604.167969 524.261719 603.816406 526.222656 603.480469 C 528.179688 603.144531 530 602.59375 531.6875 601.824219 C 533.371094 601.058594 534.855469 599.636719 536.140625 597.554688 C 536.019531 597.125 535.957031 596.804688 535.957031 596.589844 C 535.957031 596.375 535.972656 596.175781 536.003906 595.992188 C 536.035156 595.808594 536.0625 595.609375 536.09375 595.394531 C 536.125 595.183594 536.109375 594.859375 536.050781 594.429688 C 534.886719 593.941406 533.828125 593.34375 532.882813 592.640625 Z M 550.699219 639.257813 C 551.527344 639.992188 552.445313 640.679688 553.457031 641.324219 C 554.464844 641.964844 555.660156 642.609375 557.039063 643.25 C 558.417969 643.894531 560.207031 644.644531 562.410156 645.503906 C 566.820313 647.214844 570.464844 648.394531 573.34375 649.039063 C 576.21875 649.679688 578.609375 649.636719 580.507813 648.902344 C 581.058594 648.839844 581.484375 648.671875 581.792969 648.394531 C 582.097656 648.121094 582.375 647.796875 582.621094 647.429688 C 582.863281 647.0625 583.109375 646.695313 583.355469 646.328125 C 583.597656 645.960938 583.90625 645.65625 584.273438 645.410156 C 584.027344 645.351563 583.796875 645.335938 583.585938 645.363281 C 583.367188 645.394531 583.230469 645.316406 583.171875 645.132813 C 583.539063 644.707031 583.753906 644.140625 583.8125 643.433594 C 583.875 642.730469 583.84375 641.996094 583.722656 641.230469 C 583.597656 640.464844 583.339844 639.699219 582.941406 638.933594 C 582.542969 638.167969 582.070313 637.511719 581.519531 636.960938 C 580.109375 636.835938 579.023438 636.730469 578.257813 636.636719 C 577.492188 636.546875 576.742188 636.425781 576.007813 636.269531 C 575.273438 636.117188 574.460938 635.933594 573.570313 635.71875 C 572.683594 635.503906 571.445313 635.214844 569.851563 634.847656 C 568.257813 634.480469 567.019531 634.15625 566.132813 633.882813 C 565.242188 633.605469 564.417969 633.285156 563.652344 632.917969 C 562.886719 632.550781 562.074219 632.089844 561.21875 631.539063 C 560.359375 630.988281 559.195313 630.253906 557.726563 629.335938 C 557.789063 629.03125 557.710938 628.875 557.496094 628.875 C 557.28125 628.875 557.175781 628.753906 557.175781 628.507813 C 559.195313 627.652344 561.460938 626.855469 563.972656 626.121094 C 566.484375 625.386719 568.839844 624.484375 571.046875 623.410156 C 573.25 622.339844 575.132813 620.976563 576.695313 619.324219 C 578.257813 617.671875 579.128906 615.496094 579.3125 612.800781 C 579.375 612.375 579.375 612.035156 579.3125 611.792969 C 579.25 611.546875 579.175781 611.300781 579.082031 611.058594 C 578.992188 610.8125 578.945313 610.582031 578.945313 610.367188 C 578.945313 610.152344 579.007813 609.894531 579.128906 609.585938 C 578.636719 608.667969 578.210938 607.703125 577.84375 606.695313 C 577.476563 605.683594 577.109375 604.671875 576.742188 603.664063 C 576.375 602.652344 575.960938 601.703125 575.5 600.816406 C 575.042969 599.929688 574.445313 599.148438 573.710938 598.472656 C 573.710938 597.371094 573.710938 597.371094 573.710938 597.371094 C 573.21875 597.066406 572.804688 596.773438 572.46875 596.496094 C 572.132813 596.222656 571.71875 595.960938 571.230469 595.71875 C 570.25 594.1875 569.007813 592.945313 567.511719 591.996094 C 566.007813 591.046875 564.648438 590.113281 563.421875 589.195313 C 561.035156 589.441406 559.058594 590.207031 557.496094 591.492188 C 555.9375 592.777344 554.511719 594.246094 553.226563 595.902344 C 551.941406 597.554688 550.683594 599.253906 549.460938 601 C 548.234375 602.742188 546.828125 604.230469 545.234375 605.453125 C 545.050781 605.027344 544.546875 604.671875 543.71875 604.398438 C 542.894531 604.121094 542.140625 604.046875 541.46875 604.167969 C 540.855469 605.515625 540.367188 606.984375 540 608.578125 C 539.632813 610.167969 539.277344 611.792969 538.941406 613.445313 C 538.605469 615.097656 538.238281 616.765625 537.839844 618.449219 C 537.441406 620.136719 536.9375 621.773438 536.324219 623.363281 C 536.386719 623.671875 536.417969 624.054688 536.417969 624.511719 C 536.417969 624.972656 536.386719 625.433594 536.324219 625.890625 C 536.265625 626.351563 536.171875 626.71875 536.050781 626.992188 C 535.925781 627.269531 535.742188 627.316406 535.5 627.132813 C 535.867188 628.050781 535.957031 628.9375 535.773438 629.792969 C 535.589844 630.652344 535.359375 631.511719 535.085938 632.367188 C 534.808594 633.226563 534.582031 634.144531 534.398438 635.121094 C 534.210938 636.101563 534.027344 637.144531 533.84375 638.246094 C 534.089844 638.675781 534.304688 639.105469 534.488281 639.53125 C 534.671875 639.960938 534.917969 640.175781 535.222656 640.175781 C 535.101563 640.605469 535.070313 640.957031 535.132813 641.230469 C 535.191406 641.507813 535.269531 641.78125 535.359375 642.058594 C 535.453125 642.332031 535.527344 642.640625 535.589844 642.976563 C 535.652344 643.3125 535.621094 643.726563 535.5 644.214844 C 536.171875 644.09375 536.585938 644.246094 536.738281 644.675781 C 536.890625 645.105469 537.027344 645.5625 537.152344 646.054688 C 537.703125 646.054688 538.117188 646.128906 538.390625 646.28125 C 538.667969 646.433594 538.898438 646.589844 539.082031 646.742188 C 539.265625 646.894531 539.480469 647.03125 539.722656 647.15625 C 539.96875 647.277344 540.367188 647.277344 540.917969 647.15625 C 541.285156 646.910156 541.621094 646.632813 541.929688 646.328125 C 542.234375 646.023438 542.785156 645.929688 543.582031 646.054688 C 544.621094 644.707031 545.402344 643.40625 545.925781 642.148438 C 546.445313 640.894531 547.039063 639.042969 547.714844 636.59375 C 548.878906 637.632813 549.875 638.519531 550.699219 639.257813 Z M 564.203125 607.382813 C 565.273438 608.546875 565.933594 610.078125 566.179688 611.976563 C 564.09375 612.832031 561.890625 613.734375 559.566406 614.683594 C 557.238281 615.636719 555 616.230469 552.859375 616.476563 C 553.101563 615.128906 553.53125 613.949219 554.144531 612.941406 C 554.757813 611.929688 555.445313 611.011719 556.210938 610.183594 C 556.976563 609.355469 557.773438 608.546875 558.601563 607.75 C 559.425781 606.953125 560.175781 606.066406 560.851563 605.085938 C 562.011719 605.453125 563.132813 606.21875 564.203125 607.382813 Z M 631.898438 592.640625 C 630.949219 591.9375 630.167969 591.0625 629.558594 590.023438 C 629.617188 590.574219 629.480469 590.742188 629.144531 590.527344 C 628.808594 590.3125 628.515625 590.480469 628.269531 591.03125 C 627.78125 591.03125 627.261719 590.757813 626.710938 590.207031 C 624.136719 590.695313 621.839844 591.0625 619.820313 591.308594 C 617.800781 591.554688 615.855469 591.8125 613.988281 592.089844 C 612.121094 592.363281 610.222656 592.71875 608.292969 593.144531 C 606.363281 593.574219 604.175781 594.1875 601.726563 594.980469 C 600.378906 595.289063 599.09375 595.566406 597.867188 595.808594 C 596.640625 596.054688 595.507813 596.359375 594.46875 596.726563 C 593.425781 597.09375 592.460938 597.570313 591.574219 598.152344 C 590.6875 598.734375 589.9375 599.484375 589.324219 600.402344 C 589.632813 601.445313 589.84375 602.46875 589.96875 603.480469 C 590.089844 604.488281 590.242188 605.46875 590.425781 606.417969 C 590.609375 607.367188 590.902344 608.316406 591.300781 609.265625 C 591.699219 610.214844 592.324219 611.089844 593.183594 611.882813 C 592.753906 613.046875 592.308594 614.105469 591.851563 615.050781 C 591.390625 616.003906 590.933594 616.933594 590.472656 617.855469 C 590.015625 618.773438 589.570313 619.722656 589.140625 620.703125 C 588.710938 621.683594 588.316406 622.722656 587.949219 623.824219 C 587.519531 623.765625 587.273438 623.871094 587.210938 624.144531 C 587.152344 624.421875 586.96875 624.589844 586.660156 624.652344 C 586.84375 625.507813 586.644531 626.304688 586.0625 627.039063 C 585.480469 627.773438 585.101563 628.601563 584.917969 629.519531 C 584.734375 630.378906 584.6875 631.328125 584.777344 632.367188 C 584.871094 633.410156 585.007813 634.464844 585.191406 635.535156 C 585.375 636.609375 585.558594 637.632813 585.742188 638.613281 C 585.925781 639.59375 586.046875 640.480469 586.109375 641.277344 C 586.785156 641.582031 587.195313 642.027344 587.351563 642.609375 C 587.503906 643.191406 587.824219 643.695313 588.316406 644.125 C 589.476563 645.289063 590.980469 646.097656 592.816406 646.558594 C 594.652344 647.019531 596.582031 647.277344 598.601563 647.339844 C 600.625 647.398438 602.613281 647.308594 604.574219 647.0625 C 606.53125 646.816406 608.214844 646.542969 609.625 646.238281 C 610.113281 646.238281 610.542969 646.3125 610.910156 646.464844 C 611.277344 646.617188 611.738281 646.632813 612.289063 646.511719 C 614.554688 646.085938 616.621094 645.71875 618.488281 645.410156 C 620.355469 645.105469 622.054688 644.675781 623.585938 644.125 C 625.117188 643.574219 626.480469 642.761719 627.675781 641.691406 C 628.867188 640.621094 629.925781 639.070313 630.84375 637.050781 C 630.476563 637.113281 630.214844 637.035156 630.0625 636.820313 C 629.910156 636.609375 629.800781 636.347656 629.742188 636.039063 C 629.679688 635.734375 629.601563 635.414063 629.511719 635.078125 C 629.417969 634.742188 629.25 634.449219 629.007813 634.203125 C 628.457031 634.265625 627.996094 634.144531 627.628906 633.835938 C 627.261719 633.53125 626.90625 633.179688 626.570313 632.78125 C 626.234375 632.382813 625.882813 631.953125 625.515625 631.496094 C 625.148438 631.035156 624.71875 630.714844 624.230469 630.53125 C 622.820313 631.019531 621.273438 631.371094 619.589844 631.585938 C 617.90625 631.800781 616.453125 632.246094 615.226563 632.917969 C 613.269531 632.859375 611.644531 632.902344 610.359375 633.054688 C 609.074219 633.210938 607.816406 633.363281 606.59375 633.515625 C 605.367188 633.667969 604.066406 633.777344 602.691406 633.835938 C 601.3125 633.898438 599.582031 633.777344 597.5 633.46875 C 598.113281 631.816406 598.816406 630.253906 599.613281 628.785156 C 600.40625 627.316406 601.296875 625.9375 602.277344 624.652344 C 603.011719 624.898438 603.851563 625.003906 604.800781 624.972656 C 605.75 624.941406 606.5625 625.082031 607.238281 625.386719 C 607.726563 625.082031 608.414063 624.988281 609.304688 625.109375 C 610.191406 625.234375 610.878906 625.140625 611.371094 624.835938 C 611.613281 625.019531 611.8125 625.109375 611.96875 625.109375 C 612.121094 625.109375 612.347656 625.109375 612.65625 625.109375 C 614.125 625.171875 615.457031 625.035156 616.652344 624.695313 C 617.847656 624.359375 618.976563 623.917969 620.050781 623.363281 C 621.121094 622.8125 622.148438 622.1875 623.128906 621.480469 C 624.105469 620.777344 625.085938 620.089844 626.066406 619.414063 C 626.3125 618.804688 626.386719 618.207031 626.296875 617.625 C 626.203125 617.042969 626.035156 616.507813 625.792969 616.015625 C 625.179688 616.078125 624.644531 615.972656 624.183594 615.695313 C 623.722656 615.417969 623.28125 615.066406 622.851563 614.640625 C 622.421875 614.210938 621.992188 613.765625 621.566406 613.308594 C 621.136719 612.847656 620.707031 612.464844 620.28125 612.160156 C 620.21875 611.914063 620.25 611.746094 620.371094 611.652344 C 620.492188 611.5625 620.523438 611.363281 620.464844 611.058594 C 617.953125 611.117188 615.394531 611.273438 612.792969 611.515625 C 610.191406 611.761719 607.816406 611.792969 605.675781 611.609375 C 605.492188 611.242188 605.414063 610.765625 605.445313 610.183594 C 605.476563 609.601563 605.367188 609.035156 605.125 608.484375 C 605.675781 608.300781 606.226563 608.132813 606.777344 607.980469 C 607.328125 607.828125 607.789063 607.566406 608.15625 607.199219 C 609.378906 607.324219 610.3125 607.230469 610.957031 606.921875 C 611.601563 606.617188 612.320313 606.617188 613.117188 606.921875 C 615.136719 605.699219 617.171875 604.902344 619.222656 604.535156 C 621.273438 604.167969 623.28125 603.816406 625.238281 603.480469 C 627.199219 603.144531 629.019531 602.59375 630.707031 601.824219 C 632.390625 601.058594 633.875 599.636719 635.160156 597.554688 C 635.035156 597.125 634.976563 596.804688 634.976563 596.589844 C 634.976563 596.375 634.992188 596.175781 635.023438 595.992188 C 635.054688 595.808594 635.082031 595.609375 635.113281 595.394531 C 635.144531 595.183594 635.128906 594.859375 635.070313 594.429688 C 633.90625 593.941406 632.847656 593.34375 631.898438 592.640625 Z M 631.898438 592.640625 "/>
</g>
</g>
</svg>
