<svg version="1.1" xmlns="http://www.w3.org/2000/svg" xmlns:xlink="http://www.w3.org/1999/xlink" x="0px" y="0px" viewBox="0 0 1000 1000" enable-background="new 0 0 1000 1000" xml:space="preserve">
<metadata> Svg Vector Icons : http://www.onlinewebfonts.com/icon </metadata>
<g><path d="M920,430H570V80c0-38.7-31.3-70-70-70c-38.6,0-70,31.3-70,70v350H80c-38.6,0-70,31.3-70,70c0,38.7,31.4,70,70,70h350v350c0,38.6,31.4,70,70,70c38.7,0,70-31.4,70-70V570h350c38.7,0,70-31.3,70-70C990,461.3,958.7,430,920,430z"/></g>
</svg>